<svg width="199" height="353" viewBox="0 0 199 353" fill="none" xmlns="http://www.w3.org/2000/svg">
<path d="M195.807 325.336L149.298 342.051L149.147 341.7L144.054 326.52C145.494 326.06 159.979 321.256 160.022 320.795V320.619H160.624C163.44 319.874 176.55 321.431 185.684 319.369C190.112 318.404 194.926 319.435 195.807 325.336Z" fill="#0D4329"/>
<path d="M50.9704 346.35V346.854L24.9647 346.328L3.9668 335.952L10.8873 321.847L25.717 328.033C33.7766 332.179 34.056 337.729 38.0965 337.597C44.9526 337.312 50.4546 342.577 50.9704 346.35Z" fill="#0D4329"/>
<path d="M11.6184 174.307L10.4148 174.614C-1.87878 137.476 13.2303 91.2572 52.4322 73.5111L69.8409 70.44C69.7854 69.3831 70.0735 68.337 70.6603 67.4644C71.2472 66.5917 72.1 65.9413 73.0863 65.6141C73.31 65.5398 73.5403 65.4884 73.774 65.4606C80.7546 64.5907 87.8129 64.5907 94.7934 65.4606C95.1495 65.5255 95.4961 65.6361 95.8251 65.7896C97.566 66.8425 97.9743 68.4658 98.6621 70.1768C98.6621 70.1768 114.695 69.0361 119.144 74.1033C127.139 83.1629 135.994 97.0483 136.639 96.8509C137.284 96.6535 137.735 77.8983 137.499 58.463V58.0682C138.314 57.9301 139.118 57.7321 139.906 57.4759C142.044 57.3569 144.132 56.7736 146.031 55.7649V55.6333L147.557 56.3352L148.309 56.7082V56.8836C149.663 68.3342 154.606 114.597 146.848 122.977C143.538 126.552 113.277 104.55 113.277 104.55C113.277 104.55 125.205 179.352 125.742 187.731H122.003L41.3637 188.302C41.5141 172.376 49.0794 120.958 52.3247 99.3296C52.3247 99.3296 17.4643 119.949 23.9549 170.336C24.0624 171.279 14.9497 173.583 11.6184 174.307Z" fill="#0D4329"/>
<path d="M104.744 31.8551C104.98 32.1898 105.081 32.6048 105.025 33.0135C104.969 33.4222 104.76 33.793 104.443 34.0487C104.111 34.2686 103.709 34.352 103.319 34.2823C102.929 34.2126 102.579 33.9949 102.339 33.6728C102.1 33.3507 101.989 32.9482 102.028 32.5459C102.068 32.1437 102.255 31.7715 102.552 31.5041C102.718 31.3802 102.907 31.291 103.107 31.2416C103.307 31.1922 103.515 31.1835 103.719 31.2161C103.922 31.2487 104.118 31.3219 104.294 31.4315C104.469 31.5412 104.622 31.6851 104.744 31.8551Z" fill="#0D4329"/>
<path d="M90.732 30.7358C90.8624 30.9396 90.9085 31.1878 90.8601 31.4262C90.8118 31.6646 90.673 31.8738 90.4741 32.0081C90.2728 32.1356 90.0313 32.1794 89.7993 32.1304C89.5673 32.0814 89.3626 31.9434 89.2275 31.7448C89.1639 31.6426 89.1207 31.5286 89.1003 31.4093C89.0799 31.29 89.0828 31.1677 89.1088 31.0496C89.1347 30.9314 89.1832 30.8196 89.2516 30.7206C89.3199 30.6216 89.4066 30.5373 89.5069 30.4725C89.6041 30.4072 89.713 30.3621 89.8274 30.34C89.9418 30.3178 90.0593 30.319 90.1732 30.3435C90.2871 30.368 90.3951 30.4153 90.491 30.4826C90.5869 30.5499 90.6688 30.636 90.732 30.7358Z" fill="#0D4329"/>
<path d="M150.673 346.043L197.398 329.504L196.065 325.555L149.341 342.095L150.673 346.043Z" stroke="#0D4329" stroke-width="2.6488" stroke-linecap="round" stroke-linejoin="round"/>
<path d="M89.6562 229.849C89.7646 229.958 89.8651 230.076 89.9571 230.2C92.8156 233.863 114.05 262.84 114.738 264.332C119.745 275.3 142.011 322.199 143.946 326.564C145.386 326.104 159.872 321.3 159.914 320.839V320.663C160.172 315.421 153.467 277.472 147.019 241.694C146.632 239.501 132.576 208.79 121.787 187.929" stroke="#0D4329" stroke-width="2.6488" stroke-miterlimit="10" stroke-linecap="round"/>
<path d="M160.646 320.642C163.461 319.896 176.572 321.453 185.706 319.391C190.004 318.404 194.926 319.391 195.807 325.336L149.298 342.051" stroke="#0D4329" stroke-width="2.6488" stroke-linecap="round" stroke-linejoin="round"/>
<path d="M143.904 326.037L144.055 326.52L149.148 341.699" stroke="#0D4329" stroke-width="2.6488" stroke-miterlimit="10"/>
<path d="M26.7715 328.451C30.2747 326.082 63.0074 289.931 76.784 270.957C81.5123 264.376 85.8752 247.398 89.9587 230.2C92.4089 219.89 94.773 209.514 97.0512 201.354" stroke="#0D4329" stroke-width="2.6488" stroke-miterlimit="10" stroke-linecap="round"/>
<path d="M44.1147 189.421C44.1147 195.651 44.1147 202.582 44.1147 209.405C43.8353 227.392 42.8251 245.511 39.5368 252.465C30.9399 270.628 11.0811 321.673 11.0811 321.673" stroke="#0D4329" stroke-width="2.6488" stroke-miterlimit="10" stroke-linecap="round"/>
<path d="M59.8677 197.251C57.5895 205.302 51.2708 208.921 44.0279 209.404C40.8215 209.6 37.6053 209.259 34.5068 208.395" stroke="#0D4329" stroke-width="2.6488" stroke-miterlimit="10" stroke-linecap="round"/>
<path d="M3.94617 335.953L1.60352 340.406L23.9555 350.957L50.9498 351.023L50.9928 346.855H50.9713L24.9441 346.328L3.94617 335.953Z" stroke="#0D4329" stroke-width="2.6488" stroke-linecap="round" stroke-linejoin="round"/>
<path d="M50.9704 346.351C50.4546 342.578 44.9526 337.313 38.075 337.576C34.0345 337.708 33.7766 332.158 25.6955 328.012L10.8658 321.826L3.94531 335.931" stroke="#0D4329" stroke-width="2.6488" stroke-linecap="round" stroke-linejoin="round"/>
<path d="M96.9856 35.9575C96.9856 37.8659 96.7062 41.5512 93.7832 39.7963" stroke="#0D4329" stroke-width="2.6488" stroke-miterlimit="10" stroke-linecap="round"/>
<path d="M102.725 44.6216C99.6947 49.0088 96.4494 52.4966 95.0524 52.9134C94.6813 53.0234 94.2991 53.0897 93.9133 53.1108C89.4214 53.4837 84.2203 48.921 82.7373 44.7532" stroke="#0D4329" stroke-width="2.6488" stroke-miterlimit="10" stroke-linecap="round"/>
<path d="M111.343 20.9751C112.252 23.4505 112.935 26.0058 113.385 28.6088C114.051 32.996 110.613 39.9277 106.787 45.5433" stroke="#0D4329" stroke-width="2.6488" stroke-miterlimit="10" stroke-linecap="round"/>
<path d="M79.2979 20.3821C79.4053 19.9653 79.6847 18.4956 80.2435 16.5433C80.4799 15.7098 80.7593 14.8104 81.1247 13.8452C81.4901 12.88 81.791 12.0684 82.1993 11.1471C84.1336 6.95735 87.1855 2.76758 91.8923 2.0437C95.0947 1.53917 98.0606 3.95213 100.618 7.48381C101.689 9.00541 102.652 10.6035 103.498 12.2658V12.2658C104.856 14.9225 106.033 17.6709 107.023 20.4918" stroke="#0D4329" stroke-width="2.6488" stroke-miterlimit="10" stroke-linecap="round"/>
<path d="M73.0869 65.7026C74.355 53.0895 74.8923 42.3189 77.2134 29.8374" stroke="#0D4329" stroke-width="2.6488" stroke-miterlimit="10"/>
<path d="M93.912 53.1108C93.7186 58.0245 93.1168 61.271 94.8147 65.373" stroke="#0D4329" stroke-width="2.6488" stroke-miterlimit="10"/>
<path d="M80.8239 22.9488C80.3845 22.0888 79.8352 21.2922 79.1905 20.5797C74.6341 15.6441 70.3572 24.9669 72.141 28.0379C72.7216 28.7901 73.5049 29.3527 74.3945 29.6567C75.2842 29.9607 76.2415 29.9927 77.1487 29.7489C77.5622 29.6705 77.9659 29.5454 78.3523 29.376" stroke="#0D4329" stroke-width="2.6488" stroke-miterlimit="10" stroke-linecap="round"/>
<path d="M80.4376 16.5001H80.2871C78.1379 16.9608 62.47 19.4615 63.0933 14.3065C63.3727 11.7181 72.2275 11.0381 81.9635 11.1039H82.3074C89.7222 11.1039 98.706 11.8716 103.628 12.2665" stroke="#0D4329" stroke-width="2.6488" stroke-miterlimit="10"/>
<path d="M106.615 27.7965C105.852 27.2775 104.98 26.9477 104.07 26.8335C103.159 26.7192 102.235 26.8237 101.371 27.1384" stroke="#0D4329" stroke-width="3.7884" stroke-miterlimit="10" stroke-linecap="round"/>
<path d="M77.8577 24.3311C76.8541 25.0863 75.6197 25.4518 74.376 25.362" stroke="#0D4329" stroke-width="2.6488" stroke-miterlimit="10" stroke-linecap="round"/>
<path d="M111.364 20.7555H111.493C113.109 21.0767 114.647 21.7196 116.019 22.6474C117.392 23.5753 118.571 24.77 119.492 26.1632C120.412 27.5565 121.054 29.1211 121.381 30.7676C121.709 32.4142 121.716 34.1105 121.401 35.7597C121.086 37.4089 120.456 38.9786 119.547 40.3794C118.638 41.7801 117.468 42.9843 116.102 43.9234C114.737 44.8624 113.204 45.5178 111.591 45.8522C109.978 46.1865 108.316 46.1933 106.7 45.8721C104.851 45.4683 103.116 44.6402 101.626 43.4507C100.137 42.2611 98.932 40.7413 98.1032 39.0062C96.6487 35.9569 96.4383 32.4434 97.5181 29.236C98.5978 26.0286 100.88 23.3891 103.863 21.8962C104.752 21.4468 105.69 21.1081 106.657 20.8871L107.173 20.7774C108.558 20.5258 109.976 20.5184 111.364 20.7555V20.7555Z" stroke="#0D4329" stroke-width="2.6488" stroke-linecap="round" stroke-linejoin="round"/>
<path d="M91.8711 25.2518C91.0614 24.8193 90.1646 24.5843 89.2509 24.5652C88.3373 24.5462 87.4317 24.7437 86.6055 25.1421" stroke="#0D4329" stroke-width="2.6488" stroke-miterlimit="10" stroke-linecap="round"/>
<path d="M89.1191 45.3892C89.423 45.8697 89.827 46.2758 90.3025 46.5784C90.7779 46.881 91.313 47.0727 91.8694 47.1398C92.4259 47.2068 92.99 47.1476 93.5214 46.9663C94.0528 46.785 94.5384 46.4862 94.9435 46.0911" stroke="#0D4329" stroke-width="2.6488" stroke-miterlimit="10" stroke-linecap="round"/>
<path d="M129.074 51.5971C127.311 50.0397 129.267 45.5647 130.986 43.086C131.274 42.6502 131.606 42.2459 131.975 41.8795C132.337 41.5015 132.774 41.2069 133.256 41.0153C133.739 40.8238 134.256 40.7397 134.773 40.7688C135.29 40.7979 135.795 40.9394 136.254 41.184C136.713 41.4285 137.115 41.7703 137.434 42.1866" stroke="#0D4329" stroke-width="2.6488" stroke-linecap="round" stroke-linejoin="round"/>
<path d="M136.447 53.0017C136.436 53.0891 136.436 53.1775 136.447 53.2649C136.296 54.5372 133.223 53.923 133.631 51.4004" stroke="#0D4329" stroke-width="2.6488" stroke-linecap="round" stroke-linejoin="round"/>
<path d="M139.798 45.938C138.248 48.0516 137.11 50.4495 136.445 53.0014" stroke="#0D4329" stroke-width="2.6488" stroke-linecap="round" stroke-linejoin="round"/>
<path d="M134.253 45.9815C134.761 44.5675 135.764 43.3955 137.068 42.6912C137.189 42.6146 137.319 42.5555 137.455 42.5157C139.605 41.726 141.754 43.1737 140.335 45.2577L139.798 46.0035" stroke="#0D4329" stroke-width="2.6488" stroke-linecap="round" stroke-linejoin="round"/>
<path d="M143.559 49.5357C141.109 48.5925 140.658 51.488 140.271 53.3306C140.263 53.4914 140.263 53.6525 140.271 53.8132C140.122 54.2691 139.814 54.653 139.405 54.8915C138.997 55.13 138.516 55.2063 138.056 55.1058C137.595 55.0053 137.188 54.7351 136.91 54.3469C136.633 53.9587 136.506 53.4797 136.553 53.0016V53.0016" stroke="#0D4329" stroke-width="2.6488" stroke-linecap="round" stroke-linejoin="round"/>
<path d="M139.799 45.9373C141.045 44.336 142.249 43.8534 143.861 44.6211C144.969 45.2448 145.884 46.1741 146.499 47.3029C147.115 48.4316 147.407 49.7143 147.343 51.0045" stroke="#0D4329" stroke-width="2.6488" stroke-linecap="round" stroke-linejoin="round"/>
<path d="M128.236 46.9472L125.055 45.2801C124.756 45.1247 124.529 44.857 124.421 44.5335C124.313 44.2101 124.332 43.8564 124.474 43.5472V43.3717L125.27 41.7484C125.345 41.5948 125.449 41.4579 125.577 41.3458C125.704 41.2337 125.852 41.1487 126.012 41.0956C126.172 41.0425 126.341 41.0225 126.509 41.0366C126.676 41.0508 126.84 41.0989 126.989 41.1781L130.535 42.9768" stroke="#0D4329" stroke-width="2.6488" stroke-linecap="round" stroke-linejoin="round"/>
<path d="M143.366 49.4478H143.56L147.278 51.0929L149.04 51.8607L151.469 53.0891C151.767 53.2445 151.994 53.5123 152.103 53.8357C152.211 54.1591 152.192 54.5128 152.049 54.822V54.9756L151.189 56.7305C151.033 57.0365 150.767 57.2689 150.446 57.3793C150.126 57.4897 149.776 57.4694 149.47 57.3227L148.352 56.7305L147.6 56.3576L146.074 55.6556L140.83 53.2646" stroke="#0D4329" stroke-width="2.6488" stroke-linecap="round" stroke-linejoin="round"/>
<path d="M125.291 41.7478V41.9453L124.646 43.2395C124.652 43.2831 124.652 43.3275 124.646 43.3711C124.526 43.5369 124.352 43.6542 124.156 43.7023C123.959 43.7504 123.752 43.7264 123.571 43.6343L120.261 41.9233C120.063 41.8117 119.914 41.6263 119.846 41.4058C119.778 41.1852 119.796 40.9463 119.896 40.7388L120.519 39.4665C120.57 39.3623 120.64 39.2693 120.725 39.1929C120.811 39.1166 120.911 39.0583 121.019 39.0216C121.127 38.9849 121.241 38.9704 121.354 38.979C121.468 38.9876 121.578 39.0191 121.68 39.0717L124.99 40.7827C125.134 40.8899 125.241 41.0413 125.295 41.2149C125.349 41.3885 125.348 41.5752 125.291 41.7478Z" stroke="#0D4329" stroke-width="2.6488" stroke-linecap="round" stroke-linejoin="round"/>
<path d="M145.966 55.8536C144.067 56.8622 141.979 57.4456 139.841 57.5646C139.054 57.8208 138.249 58.0187 137.434 58.1568C134.21 58.7272 128.837 58.6175 129.181 51.7735C129.191 51.7155 129.191 51.656 129.181 51.598C129.293 50.6434 129.59 49.7211 130.055 48.885C130.52 48.0489 131.143 47.3157 131.889 46.7282C132.571 46.2273 133.391 45.9586 134.231 45.9605H134.618C135.021 46.0252 135.385 46.2411 135.639 46.5658C135.894 46.8904 136.02 47.3004 135.994 47.7153C135.994 48.6586 134.296 49.5141 133.458 51.2689C133.109 51.9892 132.96 52.7935 133.028 53.5942" stroke="#0D4329" stroke-width="2.6488" stroke-linecap="round" stroke-linejoin="round"/>
<path d="M137.499 58.572C137.735 78.0073 137.026 96.8502 136.639 96.9599C136.252 97.0696 127.139 83.2719 119.144 74.2123C114.695 69.1451 98.6621 70.2858 98.6621 70.2858C97.9528 68.4651 97.566 66.8419 95.8251 65.8986C95.4961 65.7451 95.1495 65.6345 94.7934 65.5696C87.8129 64.6997 80.7546 64.6997 73.774 65.5696C73.5403 65.5974 73.3099 65.6488 73.0863 65.7231C72.1 66.0503 71.2472 66.7007 70.6603 67.5734C70.0735 68.446 69.7854 69.4921 69.8409 70.549L52.4322 73.6201C13.2303 91.3882 -1.87878 137.585 10.4148 174.723L11.6184 174.416C14.9497 173.604 24.0624 171.301 23.9549 170.357C17.4643 119.949 52.2173 99.4167 52.2173 99.4167C48.9719 121.046 41.4711 172.463 41.2562 188.389L121.895 187.818H125.635C125.098 179.439 113.169 104.637 113.169 104.637C113.169 104.637 143.43 126.573 146.74 123.064C154.499 114.684 149.556 68.4213 148.202 56.9707" stroke="#0D4329" stroke-width="2.6488" stroke-linecap="round" stroke-linejoin="round"/>
<path d="M24.4065 181.677C27.6518 191.395 22.945 200.345 18.3887 197.427" stroke="#0D4329" stroke-width="2.6488" stroke-linecap="round" stroke-linejoin="round"/>
<path d="M20.7746 183.521C21.4712 185.781 21.6396 188.176 21.2664 190.515C20.8932 192.854 19.9887 195.071 18.6253 196.989L18.3244 197.428C17.5507 198.437 16.1752 200.038 14.7782 199.051C14.3296 198.681 14.0249 198.16 13.9186 197.581C13.8122 197.002 13.9113 196.403 14.1979 195.892" stroke="#0D4329" stroke-width="2.6488" stroke-linecap="round" stroke-linejoin="round"/>
<path d="M16.3895 184.617C17.4856 188.126 15.0355 196.309 12.8862 197.405C10.3501 198.853 9.03911 196.023 10.2857 193.588C14.4552 185.406 8.88866 178.387 11.6182 174.395" stroke="#0D4329" stroke-width="2.6488" stroke-linecap="round" stroke-linejoin="round"/>
<path d="M25.5674 188.105C26.0278 188.141 26.4902 188.068 26.9183 187.891C27.3463 187.715 27.7284 187.439 28.0346 187.086C28.3407 186.733 28.5625 186.313 28.6826 185.858C28.8027 185.403 28.8178 184.925 28.7268 184.463C28.1186 179.749 26.0561 175.354 22.8379 171.916" stroke="#0D4329" stroke-width="2.6488" stroke-linecap="round" stroke-linejoin="round"/>
</svg>
