<svg width="390" height="540" viewBox="0 0 390 540" fill="none" xmlns="http://www.w3.org/2000/svg">
<path d="M95.4088 288.695C96.0556 276.898 102.031 192.506 102.832 174.981L62.9456 204.672C62.9456 204.672 36.0264 255.061 35.2256 255.061C35.1138 255.084 34.9986 255.084 34.8868 255.061C32.6384 254.63 21.4272 251.396 19.1172 250.749H18.7168L40.4308 186.839C51.796 166.511 95.0084 132.939 105.85 127.272C115.306 122.344 132.153 122.837 132.738 122.868C133.724 120.342 134.032 117.139 136.496 115.63H136.681C139.761 114.213 157.871 112.55 168.035 115.291C168.516 115.425 168.973 115.633 169.39 115.907C171.743 117.636 173.42 120.129 174.134 122.96C174.134 122.96 198.065 124.069 206.628 129.428C222.028 139.161 254.46 199.406 257.94 202.855C266.041 210.925 296.44 228.45 308.114 234.579C310.454 236.858 309.5 248.1 306.204 250.349V250.534C283.869 242.811 261.996 233.812 240.692 223.584C234.964 220.072 204.164 184.036 204.164 184.036C209.492 219.364 216.484 270.523 216.853 288.448H213.773L97.2568 288.664L95.4088 288.695Z" fill="#5E1528"/>
<path d="M127.164 530.876V531.584L89.7731 531.245L59.4043 516.954L69.1371 496.965L69.5375 497.119L90.5123 505.435L91.0667 505.712C102.185 511.379 102.74 518.987 108.469 518.71C118.232 518.248 126.21 525.64 127.164 530.876Z" fill="#5E1528"/>
<path d="M247.469 525.793L241.309 503.278L241.617 504.017C241.617 504.017 265.117 498.196 265.209 497.488H265.979C270.107 496.718 288.864 500.167 302.262 498.196C308.73 497.241 315.567 499.151 316.276 507.436L247.469 526.255V525.793Z" fill="#5E1528"/>
<path d="M387.855 24.5547V536.851H342.579V24.5855L387.855 24.5547Z" fill="#5E1528"/>
<path d="M174.042 60.5594C174.054 60.7293 174.033 60.9001 173.979 61.0619C173.926 61.2237 173.841 61.3732 173.729 61.502C173.618 61.6308 173.482 61.7363 173.329 61.8124C173.177 61.8884 173.011 61.9336 172.84 61.9454C172.497 61.9699 172.159 61.8571 171.899 61.6318C171.639 61.4065 171.479 61.0872 171.454 60.7442C171.43 60.4011 171.543 60.0623 171.768 59.8024C171.993 59.5424 172.313 59.3827 172.656 59.3582C172.997 59.3408 173.332 59.4561 173.59 59.68C173.849 59.9039 174.01 60.219 174.042 60.5594Z" fill="#5E1528"/>
<path d="M157.071 60.9902C157.088 61.1585 157.07 61.3286 157.02 61.4902C156.97 61.6519 156.888 61.8018 156.779 61.931C156.67 62.0603 156.536 62.1664 156.385 62.2428C156.234 62.3193 156.069 62.3646 155.9 62.3762C155.73 62.3888 155.559 62.3676 155.398 62.314C155.236 62.2604 155.086 62.1753 154.958 62.0637C154.829 61.952 154.723 61.8161 154.647 61.6636C154.571 61.5111 154.526 61.345 154.514 61.175C154.502 61.0066 154.523 60.8374 154.577 60.6775C154.631 60.5175 154.717 60.37 154.829 60.2436C154.941 60.1173 155.077 60.0147 155.229 59.9419C155.381 59.8691 155.547 59.8275 155.715 59.8198C155.882 59.8028 156.051 59.8201 156.211 59.8706C156.37 59.921 156.518 60.0035 156.645 60.1131C156.772 60.2226 156.875 60.3569 156.948 60.5077C157.021 60.6586 157.063 60.8227 157.071 60.9902Z" fill="#5E1528"/>
<path d="M387.855 24.5547V536.851H342.579H149.74V395.171" stroke="#5E1528" stroke-width="2.6488" stroke-linecap="round" stroke-linejoin="round"/>
<path d="M149.74 23.0762V22.8914V2.22461H387.855V24.5546L342.579 24.5854H342.425" stroke="#5E1528" stroke-width="2.6488" stroke-linecap="round" stroke-linejoin="round"/>
<path d="M202.009 13.5892C202.009 14.5761 201.716 15.5407 201.168 16.3613C200.619 17.1818 199.84 17.8213 198.928 18.199C198.017 18.5767 197.013 18.6755 196.045 18.4829C195.078 18.2904 194.189 17.8152 193.491 17.1174C192.793 16.4196 192.318 15.5305 192.125 14.5626C191.933 13.5947 192.031 12.5915 192.409 11.6798C192.787 10.768 193.426 9.98877 194.247 9.44051C195.067 8.89224 196.032 8.59961 197.019 8.59961C198.34 8.60769 199.604 9.13597 200.538 10.07C201.472 11.0039 202 12.2684 202.009 13.5892Z" stroke="#5E1528" stroke-width="2.6488" stroke-linecap="round" stroke-linejoin="round"/>
<path d="M184.422 13.5901C184.421 14.5808 184.126 15.5491 183.574 16.3715C183.021 17.1939 182.237 17.8332 181.319 18.208C180.402 18.5828 179.394 18.6761 178.424 18.476C177.454 18.2758 176.565 17.7913 175.871 17.0843C175.177 16.3772 174.709 15.4795 174.527 14.5056C174.345 13.5317 174.457 12.5257 174.849 11.6157C175.241 10.7058 175.895 9.93307 176.728 9.39608C177.56 8.85908 178.534 8.58212 179.524 8.60047C180.832 8.62468 182.077 9.16104 182.993 10.0942C183.909 11.0273 184.422 12.2826 184.422 13.5901V13.5901Z" stroke="#5E1528" stroke-width="2.6488" stroke-linecap="round" stroke-linejoin="round"/>
<path d="M166.865 13.5892C166.865 14.5761 166.572 15.5407 166.024 16.3613C165.476 17.1818 164.697 17.8213 163.785 18.199C162.873 18.5767 161.87 18.6755 160.902 18.4829C159.934 18.2904 159.045 17.8152 158.347 17.1174C157.649 16.4196 157.174 15.5305 156.982 14.5626C156.789 13.5947 156.888 12.5915 157.266 11.6798C157.643 10.768 158.283 9.98877 159.103 9.44051C159.924 8.89224 160.888 8.59961 161.875 8.59961C162.531 8.59961 163.179 8.72867 163.785 8.97942C164.39 9.23017 164.94 9.5977 165.404 10.061C165.867 10.5244 166.234 11.0744 166.485 11.6798C166.736 12.2851 166.865 12.934 166.865 13.5892V13.5892Z" stroke="#5E1528" stroke-width="2.6488" stroke-linecap="round" stroke-linejoin="round"/>
<path d="M316.798 507.76L247.764 526.322L249.291 532.003L318.326 513.441L316.798 507.76Z" stroke="#5E1528" stroke-width="2.6488" stroke-linecap="round" stroke-linejoin="round"/>
<path d="M90.9443 505.681C96.4575 501.184 126.611 450.241 149.68 395.171C154.238 384.298 158.52 373.241 162.308 362.369C167.51 347.838 171.628 332.941 174.628 317.801" stroke="#5E1528" stroke-width="2.6488" stroke-linecap="round" stroke-linejoin="round"/>
<path d="M97.1027 288.85C96.4867 300.677 95.2855 314.383 93.7455 328.89C86.0455 401.516 69.5059 496.719 69.5059 496.719" stroke="#5E1528" stroke-width="2.6488" stroke-linecap="round" stroke-linejoin="round"/>
<path d="M162.676 362.4C179.215 385.715 235.549 489.203 241.431 503.156L241.739 503.895C241.739 503.895 265.24 498.074 265.332 497.365C266.78 487.109 245.004 395.941 213.588 288.603" stroke="#5E1528" stroke-width="2.6488" stroke-linecap="round" stroke-linejoin="round"/>
<path d="M114.074 310.04C111.949 321.374 103.633 327.288 93.746 329.105C88.9668 329.936 84.0799 329.936 79.3008 329.105" stroke="#5E1528" stroke-width="2.6488" stroke-linecap="round" stroke-linejoin="round"/>
<path d="M266.133 497.458C270.26 496.688 289.017 500.138 302.415 498.166C308.883 497.212 315.721 499.121 316.429 507.406L247.622 526.225" stroke="#5E1528" stroke-width="2.6488" stroke-linecap="round" stroke-linejoin="round"/>
<path d="M241.4 503.279L247.468 525.794" stroke="#5E1528" stroke-width="2.6488" stroke-linecap="round" stroke-linejoin="round"/>
<path d="M59.28 516.955L55.9844 523.269L88.232 537.775L127.04 537.467V531.585H127.009L89.618 531.246L59.28 516.955Z" stroke="#5E1528" stroke-width="2.6488" stroke-linecap="round" stroke-linejoin="round"/>
<path d="M127.164 530.876C126.364 525.578 118.386 518.248 108.5 518.71C102.771 518.987 102.34 511.379 91.0975 505.712L90.5431 505.435L69.5683 497.119L69.1679 496.965L59.4043 516.954" stroke="#5E1528" stroke-width="2.6488" stroke-linecap="round" stroke-linejoin="round"/>
<path d="M102.832 174.981C102.031 192.506 96.056 276.898 95.4092 288.695H97.1032L213.62 288.479H216.7C216.361 270.553 209.338 219.395 204.01 184.067C202.655 175.135 201.423 167.25 200.437 161.121" stroke="#5E1528" stroke-width="2.6488" stroke-linecap="round" stroke-linejoin="round"/>
<path d="M138.867 49.5326C139.237 46.9454 139.637 43.8654 140.222 40.7854C140.908 35.6691 142.891 30.8132 145.982 26.679C147.118 25.3626 148.46 24.2392 149.955 23.3526C155.807 19.9954 161.844 22.9522 167.111 28.4038C168.952 30.3224 170.641 32.382 172.162 34.5638C176.775 41.1579 180.329 48.4323 182.696 56.1238C185.437 66.8114 170.376 90.897 166.002 92.6218C165.487 92.8362 164.95 92.9912 164.4 93.0838C158.025 94.2542 149.924 88.587 147.214 82.9814" stroke="#5E1528" stroke-width="2.6488" stroke-linecap="round" stroke-linejoin="round"/>
<path d="M136.681 116.215V115.476C136.681 97.4582 135.696 81.0726 137.205 63.1162" stroke="#5E1528" stroke-width="2.6488" stroke-linecap="round" stroke-linejoin="round"/>
<path d="M164.124 93.7314L164.309 94.4398C165.91 101.247 166.342 109.84 169.298 115.753" stroke="#5E1528" stroke-width="2.5872" stroke-linecap="round" stroke-linejoin="round"/>
<path d="M141.393 52.7669C140.647 51.63 139.757 50.5946 138.744 49.6869C131.506 43.5269 126.732 57.2637 129.72 61.1753C130.658 62.1496 131.862 62.8267 133.181 63.1224C134.501 63.4181 135.879 63.3194 137.143 62.8386C137.718 62.6672 138.275 62.4403 138.806 62.1609" stroke="#5E1528" stroke-width="2.6488" stroke-linecap="round" stroke-linejoin="round"/>
<path d="M172.287 34.5341C173.611 34.5341 187.994 31.4541 193.015 27.1729C194.524 25.8793 195.202 24.4317 194.401 22.9225C192.461 19.1033 179.832 23.1381 167.266 28.3433C155.316 33.3021 143.365 39.2773 140.624 40.6633L140.162 40.8789" stroke="#5E1528" stroke-width="2.6488" stroke-linecap="round" stroke-linejoin="round"/>
<path d="M158.148 54.0924C156.882 53.7191 155.545 53.6473 154.246 53.8826C152.946 54.1179 151.72 54.6538 150.664 55.4476" stroke="#5E1528" stroke-width="2.6488" stroke-linecap="round" stroke-linejoin="round"/>
<path d="M137.359 55.2612C136.032 56.4437 134.33 57.12 132.554 57.1708" stroke="#5E1528" stroke-width="2.6488" stroke-linecap="round" stroke-linejoin="round"/>
<path d="M174.936 54.5844C172.903 53.6296 168.252 53.9068 167.451 55.9088C166.127 59.1428 168.098 65.888 168.93 69.738C169.515 72.3868 170.439 77.4688 165.85 76.1136" stroke="#5E1528" stroke-width="2.6488" stroke-linecap="round" stroke-linejoin="round"/>
<path d="M159.504 82.674C160.052 83.267 160.726 83.73 161.477 84.029C162.227 84.3281 163.034 84.4557 163.84 84.4026C164.646 84.3494 165.43 84.1169 166.135 83.7219C166.839 83.3269 167.447 82.7795 167.912 82.1196" stroke="#5E1528" stroke-width="2.6488" stroke-linecap="round" stroke-linejoin="round"/>
<path d="M132.739 122.868C132.154 122.868 115.306 122.344 105.851 127.272C95.0091 132.939 51.7967 166.511 40.4315 186.839L18.5635 250.534H18.9639C21.2739 251.18 32.4851 254.414 34.7335 254.846C34.8453 254.868 34.9604 254.868 35.0723 254.846C36.0271 254.846 62.7923 204.457 62.7923 204.457L102.617 174.673L113.828 166.296" stroke="#5E1528" stroke-width="2.6488" stroke-linecap="round" stroke-linejoin="round"/>
<path d="M30.1743 268.49C29.6973 271.535 28.719 274.481 27.2791 277.206C22.8131 285.645 14.9591 289.157 12.0947 283.982" stroke="#5E1528" stroke-width="2.6488" stroke-linecap="round" stroke-linejoin="round"/>
<path d="M24.3531 268.336C23.7664 271.628 22.4158 274.736 20.4098 277.41C18.4039 280.085 15.7986 282.252 12.8031 283.736L12.0947 284.075C10.4623 284.814 7.56715 285.831 6.51995 283.675C6.2215 282.946 6.17455 282.138 6.38652 281.38C6.59849 280.621 7.05727 279.955 7.69034 279.486H7.90594" stroke="#5E1528" stroke-width="2.6488" stroke-linecap="round" stroke-linejoin="round"/>
<path d="M18.0704 266.705C17.3312 270.801 11.6332 277.115 7.66002 279.395C6.9104 279.875 6.05298 280.16 5.16522 280.226C0.97642 280.226 1.19203 275.883 4.36443 273.727C15.206 266.335 12.6496 253.707 18.9636 250.72" stroke="#5E1528" stroke-width="2.6488" stroke-linecap="round" stroke-linejoin="round"/>
<path d="M27.4033 277.268C27.963 277.625 28.5979 277.846 29.2578 277.915C29.9178 277.984 30.5847 277.899 31.206 277.666C31.8273 277.433 32.3859 277.059 32.8377 276.573C33.2896 276.087 33.6224 275.503 33.8097 274.866C34.9413 272.144 35.5977 269.248 35.7501 266.304C36.1874 262.61 35.8518 258.865 34.7645 255.308" stroke="#5E1528" stroke-width="2.6488" stroke-linecap="round" stroke-linejoin="round"/>
<path d="M336.943 250.196C337.415 251.899 337.295 253.712 336.604 255.339C335.845 257.147 334.455 258.617 332.694 259.478C330.932 260.339 328.918 260.532 327.026 260.021L326.04 259.682C324.771 259.155 323.658 258.313 322.805 257.236C321.953 256.158 321.39 254.881 321.169 253.525C320.949 252.169 321.078 250.779 321.545 249.487C322.012 248.195 322.801 247.043 323.837 246.141C324.874 245.24 326.123 244.617 327.468 244.334C328.812 244.05 330.206 244.114 331.519 244.52C332.831 244.926 334.019 245.661 334.968 246.654C335.917 247.647 336.597 248.866 336.943 250.196V250.196Z" stroke="#5E1528" stroke-width="2.6488" stroke-linecap="round" stroke-linejoin="round"/>
<path d="M337.621 249.98C339.962 246.9 338.422 243.45 335.527 241.233C334.892 240.73 334.199 240.306 333.463 239.97C330.857 238.609 327.823 238.318 325.005 239.158C322.188 239.997 319.808 241.902 318.371 244.467" stroke="#5E1528" stroke-width="2.6488" stroke-linecap="round" stroke-linejoin="round"/>
<path d="M336.204 241.079C337.035 236.613 331.953 234.919 330.044 234.519C329.711 234.427 329.371 234.366 329.027 234.334C323.822 233.472 319.171 234.334 316.184 239.693" stroke="#5E1528" stroke-width="2.6488" stroke-linecap="round" stroke-linejoin="round"/>
<path d="M132.739 122.806C133.725 120.28 134.033 117.077 136.497 115.568H136.682C139.762 114.151 157.872 112.488 168.036 115.229C168.517 115.364 168.974 115.572 169.391 115.845C171.744 117.574 173.421 120.068 174.134 122.898C174.134 122.898 198.066 124.007 206.628 129.366C222.028 139.099 254.461 199.344 257.941 202.794C266.042 210.863 296.441 228.388 308.114 234.518C309.549 235.404 311.078 236.127 312.673 236.674C314.706 232.023 324.993 227.249 329.182 233.778" stroke="#5E1528" stroke-width="2.6488" stroke-linecap="round" stroke-linejoin="round"/>
<path d="M204.164 184.036C204.164 184.036 234.964 220.072 240.724 223.491C262.027 233.72 283.901 242.718 306.235 250.441C308.545 251.18 310.732 251.827 312.703 252.351C313.104 252.45 313.477 252.64 313.792 252.908C314.108 253.175 314.357 253.511 314.52 253.891C315.783 256.971 319.695 263.808 327.118 260.051" stroke="#5E1528" stroke-width="2.6488" stroke-linecap="round" stroke-linejoin="round"/>
<path d="M193.138 27.3265L342.579 10.5713V24.5853V536.851V536.882" stroke="#5E1528" stroke-width="2.6488" stroke-linecap="round" stroke-linejoin="round"/>
<path d="M306.143 250.257C309.438 248.009 310.393 236.767 308.052 234.488" stroke="#5E1528" stroke-width="2.6488" stroke-linecap="round" stroke-linejoin="round"/>
</svg>
