<svg width="199" height="353" viewBox="0 0 199 353" fill="none" xmlns="http://www.w3.org/2000/svg">
<path d="M195.807 325.336L149.298 342.051L149.147 341.7L144.054 326.52C145.494 326.06 159.979 321.256 160.022 320.795V320.619H160.624C163.44 319.874 176.55 321.431 185.684 319.369C190.112 318.404 194.926 319.435 195.807 325.336Z" fill="#00351D"/>
<path d="M50.9704 346.35V346.854L24.9647 346.328L3.9668 335.952L10.8873 321.847L25.717 328.033C33.7766 332.179 34.056 337.729 38.0965 337.597C44.9526 337.312 50.4546 342.577 50.9704 346.35Z" fill="#00351D"/>
<path d="M11.6184 174.307L10.4148 174.614C-1.87878 137.477 13.2303 91.2577 52.4322 73.5116L69.8409 70.4405C69.7854 69.3836 70.0735 68.3375 70.6603 67.4649C71.2472 66.5922 72.1 65.9418 73.0863 65.6146C73.31 65.5403 73.5403 65.4889 73.774 65.4611C80.7546 64.5912 87.8129 64.5912 94.7934 65.4611C95.1495 65.526 95.4961 65.6366 95.8251 65.7901C97.566 66.843 97.9743 68.4663 98.6621 70.1773C98.6621 70.1773 114.695 69.0366 119.144 74.1038C127.139 83.1634 135.994 97.0488 136.639 96.8514C137.284 96.6539 137.735 77.8987 137.499 58.4635V58.0687C138.314 57.9305 139.118 57.7326 139.906 57.4764C142.044 57.3574 144.132 56.7741 146.031 55.7654V55.6338L147.557 56.3357L148.309 56.7086V56.8841C149.663 68.3347 154.606 114.598 146.848 122.977C143.538 126.553 113.277 104.551 113.277 104.551C113.277 104.551 125.205 179.352 125.742 187.732H122.003L41.3637 188.302C41.5141 172.377 49.0794 120.959 52.3247 99.3301C52.3247 99.3301 17.4643 119.95 23.9549 170.337C24.0624 171.28 14.9497 173.583 11.6184 174.307Z" fill="#00351D"/>
<path d="M104.744 31.8551C104.98 32.1898 105.081 32.6048 105.025 33.0135C104.969 33.4222 104.76 33.793 104.443 34.0487C104.111 34.2686 103.709 34.352 103.319 34.2823C102.929 34.2126 102.579 33.9949 102.339 33.6728C102.1 33.3507 101.989 32.9482 102.028 32.5459C102.068 32.1437 102.255 31.7715 102.552 31.5041C102.718 31.3802 102.907 31.291 103.107 31.2416C103.307 31.1922 103.515 31.1835 103.719 31.2161C103.922 31.2487 104.118 31.3219 104.294 31.4315C104.469 31.5412 104.622 31.6851 104.744 31.8551Z" fill="#00351D"/>
<path d="M90.732 30.7363C90.8624 30.9401 90.9085 31.1883 90.8601 31.4267C90.8118 31.6651 90.673 31.8743 90.4741 32.0085C90.2728 32.1361 90.0313 32.1799 89.7993 32.1309C89.5673 32.0819 89.3626 31.9439 89.2275 31.7453C89.1639 31.6431 89.1207 31.529 89.1003 31.4097C89.0799 31.2904 89.0828 31.1682 89.1088 31.0501C89.1347 30.9319 89.1832 30.8201 89.2516 30.7211C89.3199 30.6221 89.4066 30.5378 89.5069 30.473C89.6041 30.4077 89.713 30.3626 89.8274 30.3405C89.9418 30.3183 90.0593 30.3195 90.1732 30.344C90.2871 30.3685 90.3951 30.4157 90.491 30.4831C90.5869 30.5504 90.6688 30.6364 90.732 30.7363Z" fill="#00351D"/>
<path d="M150.673 346.044L197.398 329.504L196.065 325.556L149.341 342.095L150.673 346.044Z" stroke="#00351D" stroke-width="2.6488" stroke-linecap="round" stroke-linejoin="round"/>
<path d="M89.6562 229.849C89.7646 229.958 89.8651 230.076 89.9571 230.2C92.8156 233.863 114.05 262.84 114.738 264.332C119.745 275.3 142.011 322.199 143.946 326.564C145.386 326.104 159.872 321.3 159.914 320.839V320.663C160.172 315.421 153.467 277.472 147.019 241.694C146.632 239.501 132.576 208.79 121.787 187.929" stroke="#00351D" stroke-width="2.6488" stroke-miterlimit="10" stroke-linecap="round"/>
<path d="M160.646 320.642C163.461 319.896 176.572 321.454 185.706 319.392C190.004 318.405 194.926 319.392 195.807 325.337L149.298 342.052" stroke="#00351D" stroke-width="2.6488" stroke-linecap="round" stroke-linejoin="round"/>
<path d="M143.904 326.038L144.055 326.52L149.148 341.7" stroke="#00351D" stroke-width="2.6488" stroke-miterlimit="10"/>
<path d="M26.7715 328.451C30.2747 326.082 63.0074 289.932 76.784 270.957C81.5123 264.376 85.8752 247.398 89.9587 230.2C92.4089 219.89 94.773 209.515 97.0512 201.354" stroke="#00351D" stroke-width="2.6488" stroke-miterlimit="10" stroke-linecap="round"/>
<path d="M44.1147 189.421C44.1147 195.651 44.1147 202.583 44.1147 209.405C43.8353 227.392 42.8251 245.511 39.5368 252.465C30.9399 270.628 11.0811 321.673 11.0811 321.673" stroke="#00351D" stroke-width="2.6488" stroke-miterlimit="10" stroke-linecap="round"/>
<path d="M59.8677 197.252C57.5895 205.302 51.2708 208.922 44.0279 209.404C40.8215 209.601 37.6053 209.26 34.5068 208.395" stroke="#00351D" stroke-width="2.6488" stroke-miterlimit="10" stroke-linecap="round"/>
<path d="M3.94617 335.953L1.60352 340.406L23.9555 350.957L50.9498 351.023L50.9928 346.855H50.9713L24.9441 346.329L3.94617 335.953Z" stroke="#00351D" stroke-width="2.6488" stroke-linecap="round" stroke-linejoin="round"/>
<path d="M50.9704 346.351C50.4546 342.578 44.9526 337.313 38.075 337.576C34.0345 337.708 33.7766 332.158 25.6955 328.012L10.8658 321.826L3.94531 335.931" stroke="#00351D" stroke-width="2.6488" stroke-linecap="round" stroke-linejoin="round"/>
<path d="M96.9856 35.9575C96.9856 37.8659 96.7062 41.5512 93.7832 39.7963" stroke="#00351D" stroke-width="2.6488" stroke-miterlimit="10" stroke-linecap="round"/>
<path d="M102.725 44.6216C99.6947 49.0088 96.4494 52.4966 95.0524 52.9134C94.6813 53.0234 94.2991 53.0897 93.9133 53.1108C89.4214 53.4837 84.2203 48.921 82.7373 44.7532" stroke="#00351D" stroke-width="2.6488" stroke-miterlimit="10" stroke-linecap="round"/>
<path d="M111.343 20.9753C112.252 23.4507 112.935 26.006 113.385 28.609C114.051 32.9962 110.613 39.928 106.787 45.5436" stroke="#00351D" stroke-width="2.6488" stroke-miterlimit="10" stroke-linecap="round"/>
<path d="M79.2979 20.3824C79.4053 19.9656 79.6847 18.4959 80.2435 16.5436C80.4799 15.71 80.7593 14.8106 81.1247 13.8455C81.4901 12.8803 81.791 12.0687 82.1993 11.1474C84.1336 6.95759 87.1855 2.76783 91.8923 2.04394C95.0947 1.53942 98.0606 3.95237 100.618 7.48405C101.689 9.00565 102.652 10.6038 103.498 12.2661V12.2661C104.856 14.9227 106.033 17.6712 107.023 20.4921" stroke="#00351D" stroke-width="2.6488" stroke-miterlimit="10" stroke-linecap="round"/>
<path d="M73.0869 65.7026C74.355 53.0895 74.8923 42.3189 77.2134 29.8374" stroke="#00351D" stroke-width="2.6488" stroke-miterlimit="10"/>
<path d="M93.912 53.1111C93.7186 58.0247 93.1168 61.2712 94.8147 65.3733" stroke="#00351D" stroke-width="2.6488" stroke-miterlimit="10"/>
<path d="M80.8239 22.9488C80.3845 22.0888 79.8352 21.2922 79.1905 20.5797C74.6341 15.6441 70.3572 24.9669 72.141 28.0379C72.7216 28.7901 73.5049 29.3527 74.3945 29.6567C75.2842 29.9607 76.2415 29.9927 77.1487 29.7489C77.5622 29.6705 77.9659 29.5454 78.3523 29.376" stroke="#00351D" stroke-width="2.6488" stroke-miterlimit="10" stroke-linecap="round"/>
<path d="M80.4376 16.5006H80.2871C78.1379 16.9612 62.47 19.4619 63.0933 14.307C63.3727 11.7186 72.2275 11.0385 81.9635 11.1044H82.3074C89.7222 11.1044 98.706 11.8721 103.628 12.267" stroke="#00351D" stroke-width="2.6488" stroke-miterlimit="10"/>
<path d="M106.615 27.797C105.852 27.278 104.98 26.9482 104.07 26.834C103.159 26.7197 102.235 26.8241 101.371 27.1389" stroke="#00351D" stroke-width="3.7884" stroke-miterlimit="10" stroke-linecap="round"/>
<path d="M77.8577 24.3311C76.8541 25.0863 75.6197 25.4518 74.376 25.362" stroke="#00351D" stroke-width="2.6488" stroke-miterlimit="10" stroke-linecap="round"/>
<path d="M111.364 20.7557H111.493C113.109 21.0769 114.647 21.7198 116.019 22.6477C117.392 23.5755 118.571 24.7702 119.492 26.1635C120.412 27.5567 121.054 29.1213 121.381 30.7679C121.709 32.4144 121.716 34.1107 121.401 35.7599C121.086 37.4091 120.456 38.9789 119.547 40.3796C118.638 41.7803 117.468 42.9846 116.102 43.9236C114.737 44.8626 113.204 45.5181 111.591 45.8524C109.978 46.1868 108.316 46.1936 106.7 45.8724C104.851 45.4685 103.116 44.6405 101.626 43.4509C100.137 42.2614 98.932 40.7415 98.1032 39.0064C96.6487 35.9572 96.4383 32.4437 97.5181 29.2363C98.5978 26.0289 100.88 23.3894 103.863 21.8964C104.752 21.4471 105.69 21.1083 106.657 20.8874L107.173 20.7777C108.558 20.526 109.976 20.5186 111.364 20.7557V20.7557Z" stroke="#00351D" stroke-width="2.6488" stroke-linecap="round" stroke-linejoin="round"/>
<path d="M91.8711 25.2523C91.0614 24.8197 90.1646 24.5847 89.2509 24.5657C88.3373 24.5467 87.4317 24.7441 86.6055 25.1426" stroke="#00351D" stroke-width="2.6488" stroke-miterlimit="10" stroke-linecap="round"/>
<path d="M89.1191 45.3894C89.423 45.8699 89.827 46.276 90.3025 46.5786C90.7779 46.8813 91.313 47.073 91.8694 47.14C92.4259 47.2071 92.99 47.1479 93.5214 46.9666C94.0528 46.7853 94.5384 46.4864 94.9435 46.0914" stroke="#00351D" stroke-width="2.6488" stroke-miterlimit="10" stroke-linecap="round"/>
<path d="M129.074 51.5976C127.311 50.0401 129.267 45.5652 130.986 43.0865C131.274 42.6507 131.606 42.2464 131.975 41.88C132.337 41.502 132.774 41.2074 133.256 41.0158C133.739 40.8243 134.256 40.7402 134.773 40.7693C135.29 40.7984 135.795 40.9399 136.254 41.1844C136.713 41.429 137.115 41.7708 137.434 42.1871" stroke="#00351D" stroke-width="2.6488" stroke-linecap="round" stroke-linejoin="round"/>
<path d="M136.447 53.0022C136.436 53.0896 136.436 53.178 136.447 53.2654C136.296 54.5377 133.223 53.9235 133.631 51.4009" stroke="#00351D" stroke-width="2.6488" stroke-linecap="round" stroke-linejoin="round"/>
<path d="M139.798 45.9382C138.248 48.0519 137.11 50.4498 136.445 53.0016" stroke="#00351D" stroke-width="2.6488" stroke-linecap="round" stroke-linejoin="round"/>
<path d="M134.253 45.9818C134.761 44.5678 135.764 43.3957 137.068 42.6914C137.189 42.6148 137.319 42.5558 137.455 42.5159C139.605 41.7262 141.754 43.174 140.335 45.2579L139.798 46.0037" stroke="#00351D" stroke-width="2.6488" stroke-linecap="round" stroke-linejoin="round"/>
<path d="M143.559 49.536C141.109 48.5927 140.658 51.4883 140.271 53.3309C140.263 53.4917 140.263 53.6527 140.271 53.8135C140.122 54.2694 139.814 54.6533 139.405 54.8918C138.997 55.1303 138.516 55.2066 138.056 55.1061C137.595 55.0056 137.188 54.7354 136.91 54.3471C136.633 53.9589 136.506 53.4799 136.553 53.0019V53.0019" stroke="#00351D" stroke-width="2.6488" stroke-linecap="round" stroke-linejoin="round"/>
<path d="M139.799 45.9378C141.045 44.3365 142.249 43.8539 143.861 44.6216C144.969 45.2453 145.884 46.1746 146.499 47.3033C147.115 48.4321 147.407 49.7148 147.343 51.005" stroke="#00351D" stroke-width="2.6488" stroke-linecap="round" stroke-linejoin="round"/>
<path d="M128.236 46.9475L125.055 45.2804C124.756 45.1249 124.529 44.8572 124.421 44.5338C124.313 44.2104 124.332 43.8566 124.474 43.5474V43.3719L125.27 41.7487C125.345 41.595 125.449 41.4581 125.577 41.3461C125.704 41.234 125.852 41.1489 126.012 41.0958C126.172 41.0428 126.341 41.0227 126.509 41.0369C126.676 41.051 126.84 41.0991 126.989 41.1783L130.535 42.9771" stroke="#00351D" stroke-width="2.6488" stroke-linecap="round" stroke-linejoin="round"/>
<path d="M143.366 49.4482H143.56L147.278 51.0934L149.04 51.8612L151.469 53.0896C151.767 53.245 151.994 53.5128 152.103 53.8362C152.211 54.1596 152.192 54.5133 152.049 54.8225V54.9761L151.189 56.731C151.033 57.037 150.767 57.2694 150.446 57.3798C150.126 57.4901 149.776 57.4699 149.47 57.3232L148.352 56.731L147.6 56.3581L146.074 55.6561L140.83 53.2651" stroke="#00351D" stroke-width="2.6488" stroke-linecap="round" stroke-linejoin="round"/>
<path d="M125.291 41.7481V41.9455L124.646 43.2397C124.652 43.2834 124.652 43.3277 124.646 43.3714C124.526 43.5371 124.352 43.6544 124.156 43.7026C123.959 43.7507 123.752 43.7266 123.571 43.6346L120.261 41.9236C120.063 41.8119 119.914 41.6266 119.846 41.406C119.778 41.1854 119.796 40.9466 119.896 40.739L120.519 39.4668C120.57 39.3625 120.64 39.2696 120.725 39.1932C120.811 39.1168 120.911 39.0586 121.019 39.0218C121.127 38.9851 121.241 38.9706 121.354 38.9792C121.468 38.9878 121.578 39.0193 121.68 39.0719L124.99 40.7829C125.134 40.8901 125.241 41.0416 125.295 41.2152C125.349 41.3888 125.348 41.5755 125.291 41.7481Z" stroke="#00351D" stroke-width="2.6488" stroke-linecap="round" stroke-linejoin="round"/>
<path d="M145.966 55.8536C144.067 56.8622 141.979 57.4456 139.841 57.5646C139.054 57.8208 138.249 58.0187 137.434 58.1568C134.21 58.7272 128.837 58.6175 129.181 51.7735C129.191 51.7155 129.191 51.656 129.181 51.598C129.293 50.6434 129.59 49.7211 130.055 48.885C130.52 48.0489 131.143 47.3157 131.889 46.7282C132.571 46.2273 133.391 45.9586 134.231 45.9605H134.618C135.021 46.0252 135.385 46.2411 135.639 46.5658C135.894 46.8904 136.02 47.3004 135.994 47.7153C135.994 48.6586 134.296 49.5141 133.458 51.2689C133.109 51.9892 132.96 52.7935 133.028 53.5942" stroke="#00351D" stroke-width="2.6488" stroke-linecap="round" stroke-linejoin="round"/>
<path d="M137.499 58.5725C137.735 78.0077 137.026 96.8507 136.639 96.9604C136.252 97.0701 127.139 83.2724 119.144 74.2128C114.695 69.1456 98.6621 70.2863 98.6621 70.2863C97.9528 68.4656 97.566 66.8424 95.8251 65.8991C95.4961 65.7456 95.1495 65.635 94.7934 65.5701C87.8129 64.7002 80.7546 64.7002 73.774 65.5701C73.5403 65.5978 73.3099 65.6493 73.0863 65.7236C72.1 66.0508 71.2472 66.7012 70.6603 67.5739C70.0735 68.4465 69.7854 69.4926 69.8409 70.5495L52.4322 73.6206C13.2303 91.3886 -1.87878 137.586 10.4148 174.723L11.6184 174.416C14.9497 173.604 24.0624 171.301 23.9549 170.358C17.4643 119.949 52.2173 99.4172 52.2173 99.4172C48.9719 121.046 41.4711 172.464 41.2562 188.389L121.895 187.819H125.635C125.098 179.439 113.169 104.638 113.169 104.638C113.169 104.638 143.43 126.574 146.74 123.064C154.499 114.685 149.556 68.4217 148.202 56.9712" stroke="#00351D" stroke-width="2.6488" stroke-linecap="round" stroke-linejoin="round"/>
<path d="M24.4065 181.677C27.6518 191.395 22.945 200.345 18.3887 197.427" stroke="#00351D" stroke-width="2.6488" stroke-linecap="round" stroke-linejoin="round"/>
<path d="M20.7746 183.521C21.4712 185.781 21.6396 188.177 21.2664 190.515C20.8932 192.854 19.9887 195.071 18.6253 196.989L18.3244 197.428C17.5507 198.437 16.1752 200.039 14.7782 199.051C14.3296 198.681 14.0249 198.16 13.9186 197.581C13.8122 197.002 13.9113 196.404 14.1979 195.893" stroke="#00351D" stroke-width="2.6488" stroke-linecap="round" stroke-linejoin="round"/>
<path d="M16.3895 184.617C17.4856 188.127 15.0355 196.309 12.8862 197.406C10.3501 198.854 9.03911 196.024 10.2857 193.589C14.4552 185.407 8.88866 178.387 11.6182 174.395" stroke="#00351D" stroke-width="2.6488" stroke-linecap="round" stroke-linejoin="round"/>
<path d="M25.5674 188.105C26.0278 188.142 26.4902 188.069 26.9183 187.892C27.3463 187.715 27.7284 187.439 28.0346 187.087C28.3407 186.734 28.5625 186.313 28.6826 185.858C28.8027 185.403 28.8178 184.926 28.7268 184.464C28.1186 179.749 26.0561 175.355 22.8379 171.917" stroke="#00351D" stroke-width="2.6488" stroke-linecap="round" stroke-linejoin="round"/>
</svg>
