<svg width="530" height="432" viewBox="0 0 530 432" fill="none" xmlns="http://www.w3.org/2000/svg">
<path d="M500.545 16.917H142.224V55.6634C142.108 57.4694 141.255 59.1585 139.85 60.3638C138.444 61.5691 136.601 62.1933 134.719 62.1006H130.068C130.068 68.4762 129.491 77.0078 127.15 75.283C124.808 73.5582 122.98 66.4126 122.114 62.0082H121.408H79.7133C77.8262 62.1093 75.9742 61.4889 74.5619 60.2827C73.1496 59.0766 72.2918 57.3826 72.1761 55.571V16.917H29.4546C25.8466 16.917 22.2738 17.6 18.9408 18.9268C15.6078 20.2537 12.5798 22.1985 10.0299 24.6499C7.48013 27.1014 5.4585 30.0115 4.08066 33.2138C2.70283 36.416 1.9958 39.8477 2.00002 43.3126V404.227C2.00002 411.228 4.89593 417.941 10.0507 422.891C15.2054 427.842 22.1968 430.623 29.4867 430.623H500.545C507.83 430.614 514.813 427.83 519.961 422.881C525.108 417.931 528 411.222 528 404.227V43.3126C528.004 39.8477 527.297 36.416 525.919 33.2138C524.542 30.0115 522.52 27.1014 519.97 24.6499C517.42 22.1985 514.392 20.2537 511.059 18.9268C507.726 17.6 504.153 16.917 500.545 16.917ZM479.569 142.858L483.226 139.778C483.255 139.737 483.27 139.689 483.27 139.64C483.27 139.59 483.255 139.542 483.226 139.501L480.339 135.774C480.309 135.745 480.289 135.707 480.283 135.666C480.278 135.625 480.287 135.583 480.309 135.548C480.332 135.512 480.366 135.485 480.406 135.47C480.446 135.455 480.49 135.454 480.532 135.466L485.311 136.267C485.343 136.29 485.383 136.302 485.423 136.302C485.463 136.302 485.502 136.29 485.535 136.267L486.786 131.739C486.801 131.706 486.826 131.678 486.857 131.659C486.888 131.639 486.925 131.628 486.962 131.628C487 131.628 487.036 131.639 487.068 131.659C487.099 131.678 487.124 131.706 487.139 131.739L489.48 135.867C489.515 135.897 489.561 135.914 489.608 135.914C489.656 135.914 489.701 135.897 489.737 135.867L494.163 133.957C494.2 133.946 494.239 133.944 494.278 133.951C494.316 133.959 494.351 133.976 494.38 134.001C494.409 134.026 494.431 134.058 494.444 134.093C494.456 134.129 494.459 134.167 494.451 134.203L492.719 138.423C492.719 138.423 492.719 138.608 492.719 138.669L497.049 140.825C497.083 140.845 497.11 140.872 497.129 140.904C497.148 140.936 497.158 140.973 497.158 141.01C497.158 141.047 497.148 141.084 497.129 141.116C497.11 141.149 497.083 141.176 497.049 141.195L492.367 142.458C492.367 142.458 492.367 142.458 492.367 142.673L493.297 147.263C493.31 147.302 493.308 147.345 493.293 147.383C493.278 147.422 493.249 147.455 493.212 147.476C493.175 147.497 493.132 147.506 493.089 147.501C493.046 147.496 493.006 147.477 492.976 147.447L489.031 144.706C488.996 144.676 488.95 144.659 488.903 144.659C488.855 144.659 488.81 144.676 488.775 144.706L485.567 148.279C485.552 148.312 485.528 148.34 485.496 148.36C485.465 148.379 485.428 148.39 485.391 148.39C485.353 148.39 485.317 148.379 485.285 148.36C485.254 148.34 485.229 148.312 485.214 148.279L484.958 143.628C484.958 143.579 484.938 143.532 484.901 143.498C484.865 143.463 484.816 143.443 484.765 143.443H479.922C479.841 143.488 479.745 143.501 479.655 143.477C479.565 143.454 479.488 143.398 479.441 143.32C479.394 143.243 479.382 143.15 479.406 143.064C479.43 142.977 479.489 142.903 479.569 142.858ZM479.185 224.694L481.783 227.096C481.783 227.096 481.783 227.096 481.975 227.096L484.701 224.817H484.958L484.573 228.267L488.133 228.883C488.16 228.895 488.183 228.915 488.199 228.939C488.215 228.964 488.223 228.992 488.223 229.021C488.223 229.05 488.215 229.078 488.199 229.103C488.183 229.127 488.16 229.147 488.133 229.16L485.086 231.039V231.223L486.786 234.303C486.786 234.303 486.786 234.55 486.594 234.519L483.194 233.41H483.001L481.59 236.49C481.59 236.49 481.334 236.49 481.301 236.49L480.051 233.225L476.555 234.18L476.394 233.965L478.287 230.885C478.287 230.885 478.287 230.885 478.287 230.7L475.368 228.667V228.421L478.96 227.989L478.8 224.509L479.185 224.694ZM452.885 54.5238L458.113 49.9038C458.152 49.8382 458.173 49.7639 458.173 49.6882C458.173 49.6125 458.152 49.5381 458.113 49.4726L455.098 43.3126C455.067 43.251 455.056 43.1819 455.066 43.1143C455.077 43.0467 455.109 42.9838 455.157 42.9338C455.206 42.8838 455.269 42.8491 455.339 42.8343C455.408 42.8194 455.481 42.8251 455.547 42.8506L462.314 44.8526C462.375 44.8951 462.448 44.9181 462.523 44.9181C462.598 44.9181 462.671 44.8951 462.731 44.8526L466.772 39.247C466.806 39.1892 466.854 39.1411 466.914 39.1075C466.973 39.074 467.04 39.0563 467.109 39.0563C467.178 39.0563 467.245 39.074 467.305 39.1075C467.364 39.1411 467.413 39.1892 467.446 39.247L468.985 45.8998C469.013 45.972 469.06 46.0358 469.122 46.0846C469.184 46.1333 469.259 46.1652 469.338 46.177L476.394 46.7314C476.463 46.7416 476.528 46.7696 476.582 46.8124C476.636 46.8553 476.676 46.9113 476.699 46.9746C476.722 47.0379 476.727 47.1061 476.713 47.1717C476.699 47.2374 476.666 47.2981 476.619 47.3474L471.391 51.9674C471.354 52.0283 471.335 52.0973 471.335 52.1676C471.335 52.2379 471.354 52.3069 471.391 52.3678L474.406 58.5278C474.437 58.5893 474.448 58.6584 474.437 58.726C474.426 58.7936 474.395 58.8566 474.346 58.9066C474.297 58.9565 474.234 58.9912 474.165 59.0061C474.095 59.021 474.023 59.0153 473.957 58.9898L467.061 57.0186C467 56.9761 466.927 56.9531 466.852 56.9531C466.777 56.9531 466.704 56.9761 466.644 57.0186L462.603 62.6242C462.569 62.682 462.521 62.7301 462.461 62.7636C462.402 62.7972 462.335 62.8149 462.266 62.8149C462.197 62.8149 462.13 62.7972 462.071 62.7636C462.011 62.7301 461.962 62.682 461.929 62.6242L460.646 55.9714C460.619 55.8992 460.571 55.8353 460.509 55.7866C460.447 55.7379 460.373 55.7059 460.294 55.6942L453.237 55.1398C453.158 55.1544 453.075 55.1444 453.001 55.1112C452.928 55.078 452.867 55.0233 452.828 54.9549C452.789 54.8865 452.773 54.8079 452.783 54.7305C452.794 54.6531 452.829 54.5807 452.885 54.5238ZM399.002 119.666L401.92 118.988L401.471 116.124C401.471 116.124 401.471 116.124 401.664 116.124L404.037 117.91H404.198L406.25 115.816H406.475V118.711L409.458 118.927V119.142L407.116 120.959L408.816 123.331V123.516L405.897 122.9C405.897 122.9 405.897 122.9 405.737 122.9L404.839 125.641H404.615L403.299 123.023L400.509 124.101C400.509 124.101 400.317 124.101 400.349 123.916L401.632 121.329L399.034 119.881C399.034 119.881 398.873 119.666 399.002 119.666ZM374.049 200.577L377.545 197.497C377.574 197.457 377.589 197.408 377.589 197.359C377.589 197.309 377.574 197.261 377.545 197.22L375.524 193.062C375.505 193.021 375.499 192.975 375.506 192.93C375.512 192.886 375.531 192.843 375.561 192.808C375.591 192.773 375.63 192.747 375.674 192.732C375.719 192.717 375.767 192.714 375.813 192.723L380.367 194.079C380.41 194.106 380.46 194.121 380.512 194.121C380.563 194.121 380.613 194.106 380.656 194.079L383.382 190.321C383.399 190.281 383.427 190.247 383.465 190.222C383.502 190.198 383.546 190.185 383.591 190.185C383.635 190.185 383.679 190.198 383.716 190.222C383.754 190.247 383.782 190.281 383.799 190.321L384.857 194.787C384.874 194.834 384.904 194.877 384.943 194.909C384.983 194.942 385.031 194.963 385.082 194.972L389.829 195.372C389.882 195.358 389.94 195.364 389.989 195.388C390.039 195.412 390.077 195.453 390.097 195.503C390.117 195.553 390.117 195.608 390.097 195.658C390.077 195.708 390.039 195.748 389.989 195.773L386.493 198.853C386.464 198.893 386.449 198.942 386.449 198.991C386.449 199.041 386.464 199.089 386.493 199.13L388.514 203.288C388.54 203.327 388.551 203.374 388.547 203.421C388.543 203.467 388.523 203.511 388.49 203.546C388.458 203.581 388.414 203.605 388.366 203.614C388.319 203.622 388.269 203.616 388.225 203.596L383.671 202.241C383.628 202.213 383.578 202.198 383.526 202.198C383.475 202.198 383.425 202.213 383.382 202.241L380.463 206.091C380.447 206.131 380.418 206.165 380.381 206.189C380.344 206.213 380.3 206.226 380.255 206.226C380.21 206.226 380.166 206.213 380.129 206.189C380.092 206.165 380.063 206.131 380.046 206.091L378.988 201.594C378.967 201.549 378.936 201.51 378.897 201.478C378.858 201.446 378.813 201.422 378.764 201.409L374.049 200.947C374.021 200.924 374 200.895 373.985 200.864C373.97 200.832 373.962 200.797 373.962 200.762C373.962 200.727 373.97 200.693 373.985 200.661C374 200.629 374.021 200.6 374.049 200.577ZM333.476 58.035L338.576 56.8954C338.605 56.8666 338.622 56.8279 338.622 56.7876C338.622 56.7473 338.605 56.7086 338.576 56.6798L337.806 51.6902C337.797 51.6476 337.802 51.6035 337.82 51.5637C337.838 51.5238 337.868 51.49 337.906 51.4667C337.944 51.4435 337.988 51.4318 338.034 51.4332C338.079 51.4346 338.122 51.449 338.159 51.4746L342.264 54.5546C342.31 54.5896 342.366 54.6086 342.425 54.6086C342.483 54.6086 342.539 54.5896 342.585 54.5546L346.145 50.8586C346.165 50.8267 346.193 50.8003 346.227 50.782C346.261 50.7637 346.299 50.754 346.338 50.754C346.376 50.754 346.414 50.7637 346.448 50.782C346.482 50.8003 346.51 50.8267 346.53 50.8586V56.187C346.538 56.2387 346.565 56.2859 346.606 56.3199C346.647 56.3539 346.7 56.3723 346.755 56.3718L351.982 56.7722C352.016 56.7914 352.043 56.8184 352.062 56.8508C352.081 56.8832 352.091 56.9198 352.091 56.957C352.091 56.9942 352.081 57.0308 352.062 57.0632C352.043 57.0955 352.016 57.1226 351.982 57.1418L347.877 60.2218C347.841 60.2655 347.821 60.3198 347.821 60.3758C347.821 60.4318 347.841 60.4861 347.877 60.5298L350.828 64.6878C350.849 64.7019 350.867 64.7199 350.881 64.7408C350.894 64.7616 350.904 64.7848 350.908 64.8091C350.913 64.8334 350.912 64.8583 350.907 64.8824C350.901 64.9065 350.891 64.9294 350.876 64.9496C350.861 64.9698 350.842 64.987 350.821 65.0003C350.799 65.0136 350.775 65.0226 350.75 65.0269C350.724 65.0312 350.698 65.0307 350.673 65.0253C350.648 65.02 350.624 65.0099 350.603 64.9958L345.472 63.887C345.432 63.868 345.388 63.8581 345.343 63.8581C345.299 63.8581 345.255 63.868 345.215 63.887L343.675 68.6918C343.659 68.7318 343.63 68.7661 343.593 68.7903C343.556 68.8145 343.512 68.8274 343.467 68.8274C343.422 68.8274 343.378 68.8145 343.341 68.7903C343.304 68.7661 343.275 68.7318 343.259 68.6918L340.981 64.1642C340.939 64.1364 340.888 64.1215 340.837 64.1215C340.786 64.1215 340.735 64.1364 340.693 64.1642L335.818 66.0122C335.774 66.0326 335.724 66.0389 335.676 66.0299C335.629 66.0209 335.585 65.9973 335.553 65.9625C335.52 65.9278 335.5 65.8837 335.496 65.8371C335.491 65.7905 335.503 65.7439 335.529 65.7042L337.774 61.1766C337.795 61.1592 337.811 61.1379 337.822 61.114C337.833 61.0901 337.839 61.0642 337.839 61.038C337.839 61.0118 337.833 60.9858 337.822 60.962C337.811 60.9381 337.795 60.9167 337.774 60.8994L333.22 58.3738C333.187 58.3369 333.168 58.2907 333.167 58.2424C333.165 58.1941 333.18 58.1467 333.209 58.1076C333.239 58.0686 333.281 58.0402 333.33 58.027C333.378 58.0138 333.43 58.0166 333.476 58.035ZM233.344 47.563C240.753 39.6166 248.707 42.6658 255.442 49.4418C268.528 44.175 281.71 40.0478 283.699 43.7746C285.687 47.5014 274.975 52.7682 261.247 56.6182C250.577 59.6804 239.56 61.4903 228.437 62.0082C228.389 62.0162 228.34 62.0093 228.297 61.9884C228.254 61.9675 228.219 61.9338 228.197 61.8923C228.175 61.8507 228.168 61.8036 228.177 61.7579C228.185 61.7122 228.209 61.6704 228.244 61.6386C228.276 56.5341 230.069 51.5838 233.344 47.563ZM245.756 106.761L243.351 105.991L242.356 108.239H242.164L241.298 105.96L238.86 106.607L240.207 104.512L238.155 103.095V102.911L240.689 102.603V100.169C240.689 100.169 240.689 100.169 240.881 100.169L242.677 101.863L244.569 100.262H244.762L244.505 102.695L247.007 103.126C247.007 103.126 247.007 103.28 247.007 103.311L244.89 104.635L245.756 106.761ZM101.074 127.366L103.993 126.688L103.544 123.824C103.544 123.824 103.544 123.639 103.736 123.824L106.11 125.61L108.162 123.516H108.387V126.411L111.37 126.627V126.842L109.028 128.659L110.728 131.031V131.216L107.809 130.6L106.911 133.372H106.687L105.372 130.754C105.372 130.754 105.372 130.754 105.211 130.754L102.421 131.832C102.421 131.832 102.229 131.832 102.261 131.647L103.544 129.06L100.946 127.612C100.946 127.612 100.946 127.366 101.074 127.366ZM21.0515 59.267L23.9701 58.5894L23.5211 55.725C23.5211 55.725 23.5211 55.725 23.7136 55.725L26.087 57.5114C26.087 57.5114 26.087 57.5114 26.2473 57.5114L28.3 55.417H28.5245V58.3122L31.5073 58.5278V58.7434L29.166 60.5606L30.8659 62.9322V63.117L27.9472 62.501C27.9472 62.501 27.9472 62.501 27.7868 62.501L27.0171 65.427H26.7926L25.4776 62.809H25.3172L22.5268 63.887C22.5268 63.887 22.3344 63.887 22.5268 63.7022L23.8098 61.115L21.2118 59.6674C21.2118 59.6674 20.9232 59.267 21.0515 59.267ZM30.1282 205.967L27.9151 207.908C27.9009 207.937 27.8935 207.968 27.8935 208C27.8935 208.032 27.9009 208.064 27.9151 208.093L29.1981 210.68C29.2122 210.707 29.2177 210.737 29.2139 210.768C29.21 210.798 29.197 210.826 29.1764 210.849C29.1559 210.872 29.1287 210.889 29.0983 210.897C29.0679 210.905 29.0357 210.905 29.0056 210.895L26.1511 210.033C26.1511 210.033 26.1511 210.033 25.9587 210.033L24.2588 212.374H24.0022L23.3287 209.571L20.3459 209.325V209.078L22.5268 207.138V206.953L21.276 204.366C21.2292 204.37 21.1826 204.356 21.1466 204.327C21.1105 204.298 21.0878 204.257 21.0836 204.212C21.0793 204.167 21.0938 204.122 21.1239 204.087C21.154 204.053 21.1971 204.031 21.2439 204.027L24.0984 204.889C24.0984 204.889 24.0984 204.889 24.2588 204.889L25.9587 202.518C25.9718 202.492 25.9923 202.47 26.0178 202.454C26.0434 202.439 26.0729 202.431 26.103 202.431C26.1331 202.431 26.1626 202.439 26.1882 202.454C26.2137 202.47 26.2342 202.492 26.2473 202.518L26.8888 205.321L29.8716 205.536C29.9269 205.504 29.9934 205.493 30.0566 205.508C30.1197 205.522 30.1743 205.56 30.2084 205.613C30.2424 205.666 30.2531 205.73 30.238 205.791C30.223 205.851 30.1835 205.904 30.1282 205.937V205.967ZM55.7867 393.139L50.5588 397.759C50.5187 397.819 50.4974 397.888 50.4974 397.959C50.4974 398.03 50.5187 398.1 50.5588 398.159L53.5737 404.319C53.599 404.382 53.606 404.451 53.5938 404.517C53.5816 404.584 53.5507 404.645 53.5044 404.696C53.4582 404.747 53.3983 404.785 53.3314 404.805C53.2644 404.826 53.1929 404.828 53.1246 404.812L46.3572 402.81C46.2967 402.768 46.2237 402.745 46.1487 402.745C46.0738 402.745 46.0007 402.768 45.9403 402.81L41.899 408.416C41.8658 408.474 41.817 408.522 41.7577 408.555C41.6985 408.589 41.631 408.606 41.5623 408.606C41.4935 408.606 41.426 408.589 41.3668 408.555C41.3076 408.522 41.2588 408.474 41.2255 408.416L39.686 401.763C39.6616 401.689 39.6152 401.623 39.5525 401.574C39.4899 401.525 39.4137 401.494 39.3332 401.486L32.2771 400.901C32.2079 400.897 32.1413 400.875 32.0855 400.835C32.0297 400.796 31.9872 400.742 31.9632 400.679C31.9393 400.617 31.935 400.549 31.9509 400.484C31.9668 400.42 32.0021 400.361 32.0526 400.315L37.2484 395.695C37.2954 395.633 37.3207 395.557 37.3207 395.48C37.3207 395.402 37.2954 395.327 37.2484 395.264L34.2336 389.104C34.2082 389.041 34.2012 388.973 34.2134 388.906C34.2256 388.84 34.2565 388.778 34.3028 388.727C34.3491 388.677 34.4089 388.639 34.4759 388.618C34.5428 388.598 34.6143 388.596 34.6826 388.611L41.45 390.644C41.5273 390.669 41.6111 390.667 41.6871 390.639C41.7631 390.611 41.8266 390.558 41.867 390.49L45.9082 384.915C45.9363 384.856 45.9815 384.806 46.0384 384.771C46.0952 384.736 46.1614 384.718 46.2289 384.718C46.2965 384.718 46.3626 384.736 46.4195 384.771C46.4763 384.806 46.5215 384.856 46.5496 384.915L48.1212 391.568C48.1472 391.639 48.1948 391.7 48.2578 391.744C48.3208 391.788 48.3962 391.813 48.474 391.815L55.5301 392.4C55.628 392.359 55.7387 392.357 55.8379 392.395C55.9372 392.432 56.0168 392.506 56.0593 392.6C56.1019 392.694 56.1038 392.8 56.0647 392.896C56.0256 392.991 55.9487 393.067 55.8509 393.108L55.7867 393.139ZM72.9138 281.92L68.7764 285.585C68.7373 285.634 68.7162 285.693 68.7162 285.755C68.7162 285.816 68.7373 285.876 68.7764 285.924L71.1818 290.821C71.2127 290.871 71.2267 290.929 71.2218 290.986C71.2168 291.044 71.1933 291.099 71.1544 291.143C71.1155 291.187 71.0633 291.218 71.0049 291.232C70.9466 291.246 70.8851 291.243 70.829 291.222L65.4407 289.62C65.3871 289.59 65.3263 289.575 65.2643 289.575C65.2024 289.575 65.1416 289.59 65.0879 289.62L61.8806 294.086C61.8519 294.131 61.8117 294.168 61.764 294.193C61.7163 294.219 61.6626 294.232 61.608 294.232C61.5534 294.232 61.4997 294.219 61.452 294.193C61.4043 294.168 61.3641 294.131 61.3354 294.086L60.0845 288.789C60.0767 288.729 60.0462 288.674 59.9989 288.634C59.9516 288.594 59.8908 288.573 59.8279 288.573L54.2151 288.111C54.161 288.101 54.1105 288.078 54.0684 288.044C54.0263 288.01 53.994 287.966 53.9747 287.917C53.9553 287.867 53.9496 287.814 53.958 287.761C53.9664 287.709 53.9887 287.66 54.0227 287.618L58.1922 283.953C58.2232 283.901 58.2395 283.843 58.2395 283.784C58.2395 283.724 58.2232 283.666 58.1922 283.614L55.7867 278.717C55.7559 278.667 55.7419 278.61 55.7468 278.552C55.7517 278.495 55.7753 278.44 55.8142 278.396C55.853 278.352 55.9053 278.32 55.9636 278.306C56.022 278.292 56.0835 278.296 56.1395 278.317L61.5278 279.918C61.5753 279.949 61.6311 279.965 61.6882 279.965C61.7453 279.965 61.8011 279.949 61.8485 279.918L65.0559 275.452C65.0802 275.407 65.1169 275.369 65.1622 275.342C65.2075 275.316 65.2595 275.302 65.3125 275.302C65.3655 275.302 65.4174 275.316 65.4627 275.342C65.508 275.369 65.5448 275.407 65.569 275.452L66.8199 280.75C66.8277 280.81 66.8582 280.865 66.9055 280.904C66.9528 280.944 67.0136 280.966 67.0765 280.965L72.7214 281.427C72.7806 281.418 72.8412 281.428 72.8948 281.453C72.9485 281.479 72.9924 281.52 73.0206 281.571C73.0488 281.622 73.0599 281.68 73.0522 281.737C73.0446 281.794 73.0186 281.847 72.9779 281.889L72.9138 281.92ZM165.573 397.79L160.089 398.991C160.026 398.999 159.969 399.028 159.928 399.073C159.886 399.119 159.864 399.177 159.864 399.237L159.383 404.658C159.379 404.714 159.358 404.767 159.322 404.811C159.286 404.854 159.237 404.887 159.181 404.903C159.126 404.92 159.066 404.92 159.011 404.904C158.955 404.888 158.906 404.856 158.87 404.812L155.021 400.839C154.976 400.804 154.919 400.785 154.861 400.785C154.802 400.785 154.746 400.804 154.7 400.839L149.569 403.149C149.518 403.169 149.463 403.175 149.409 403.165C149.355 403.156 149.305 403.132 149.264 403.097C149.224 403.061 149.195 403.015 149.181 402.965C149.167 402.914 149.168 402.86 149.184 402.81L150.852 397.605C150.88 397.558 150.895 397.505 150.895 397.451C150.895 397.397 150.88 397.344 150.852 397.297L146.201 394.217C146.144 394.198 146.095 394.163 146.061 394.116C146.026 394.069 146.007 394.013 146.007 393.955C146.007 393.898 146.026 393.841 146.061 393.795C146.095 393.748 146.144 393.712 146.201 393.693L151.718 392.492C151.78 392.485 151.837 392.455 151.879 392.41C151.92 392.365 151.943 392.306 151.942 392.246L152.423 386.856C152.421 386.798 152.438 386.74 152.471 386.692C152.505 386.643 152.553 386.606 152.61 386.585C152.667 386.565 152.729 386.562 152.788 386.578C152.846 386.593 152.898 386.626 152.936 386.671L156.753 390.675C156.809 390.698 156.869 390.71 156.929 390.71C156.99 390.71 157.05 390.698 157.106 390.675L162.205 388.365C162.257 388.335 162.317 388.322 162.377 388.327C162.437 388.331 162.494 388.354 162.54 388.391C162.586 388.429 162.619 388.479 162.633 388.535C162.648 388.591 162.644 388.65 162.622 388.704L160.955 393.878C160.918 393.922 160.898 393.976 160.898 394.032C160.898 394.088 160.918 394.142 160.955 394.186L165.605 397.266C165.661 397.288 165.708 397.326 165.74 397.375C165.772 397.424 165.788 397.481 165.784 397.539C165.781 397.597 165.758 397.652 165.72 397.697C165.683 397.742 165.631 397.774 165.573 397.79ZM252.844 358.705L249.637 360.583C249.637 360.583 249.637 360.583 249.637 360.768L251.369 363.848C251.369 363.848 251.369 364.095 251.176 364.033L247.745 362.924L246.301 366.004C246.301 366.004 246.077 366.004 246.045 366.004L244.794 362.77H244.601L241.138 363.694C241.138 363.694 240.881 363.694 241.138 363.479L242.998 360.399V360.183L240.079 358.15V357.904L243.671 357.473L243.511 353.992H243.768L246.333 356.395C246.366 356.417 246.405 356.429 246.446 356.429C246.486 356.429 246.525 356.417 246.558 356.395L249.284 354.085C249.284 354.085 249.541 354.085 249.509 354.085L249.156 357.534C249.142 357.563 249.134 357.595 249.134 357.627C249.134 357.659 249.142 357.69 249.156 357.719L252.716 358.335C252.716 358.335 253.069 358.643 252.973 358.705H252.844ZM341.976 409.063L338.768 410.941V411.126L340.468 414.206C340.482 414.233 340.488 414.264 340.484 414.294C340.48 414.324 340.467 414.352 340.447 414.375C340.426 414.398 340.399 414.415 340.368 414.423C340.338 414.432 340.306 414.431 340.276 414.422L336.876 413.313H336.684L335.272 416.393C335.272 416.393 335.016 416.393 334.984 416.393L333.733 413.128L330.237 414.052V413.837L332.129 410.757V410.572L329.21 408.539C329.183 408.526 329.161 408.507 329.145 408.482C329.129 408.458 329.12 408.429 329.12 408.4C329.12 408.371 329.129 408.343 329.145 408.319C329.161 408.294 329.183 408.274 329.21 408.262L332.803 407.831V404.381H333.059L335.657 406.814C335.657 406.814 335.657 406.814 335.85 406.814L338.576 404.535H338.832L338.448 407.985V408.139L342.008 408.755C342.05 408.759 342.089 408.779 342.116 408.811C342.143 408.842 342.156 408.883 342.152 408.924C342.148 408.965 342.127 409.002 342.094 409.028C342.061 409.054 342.018 409.067 341.976 409.063ZM450.736 340.101L450.479 339.917C448.619 338.654 441.306 333.972 430.241 326.857H429.888L330.846 287.187C328.281 285.877 325.452 285.113 322.552 284.949C319.651 284.784 316.748 285.222 314.04 286.232V286.417C317.811 288.851 321.315 291.648 324.496 294.764L400.253 372.287L380.014 391.907L293.256 331.354C285.368 326.658 276.104 324.55 266.86 325.348C234.21 328.428 189.885 332.709 168.748 326.703C158.616 323.49 149.803 317.28 143.571 308.963C136.908 300.341 131.891 290.654 128.753 280.349V280.165L127.951 280.411C119.837 221.244 129.523 188.011 129.523 188.011C129.523 188.011 92.7671 228.667 78.5908 223.924C60.4694 218.01 40.4878 145.507 40.4878 145.507H40.9368V145.014C40.1029 142.396 33.1431 135.774 27.1454 132.232C23.9381 130.446 20.5383 129.152 18.5818 127.889C18.2576 127.671 17.9929 127.38 17.8102 127.042C17.6275 126.705 17.5322 126.33 17.5322 125.949C17.5322 125.568 17.6275 125.193 17.8102 124.856C17.9929 124.518 18.2576 124.227 18.5818 124.009L18.197 123.485C17.7943 123.133 17.4917 122.688 17.3177 122.192C17.1438 121.696 17.1042 121.166 17.2027 120.651C17.8121 118.865 20.827 118.434 24.5795 119.019V118.311C25.4455 115.415 29.1018 116.124 30.7376 116.401C39.5577 117.941 51.104 126.873 51.7455 128.967L52.2587 129.522C53.2686 128.807 54.3418 128.178 55.466 127.643C55.8188 126.904 51.7134 118.403 55.8829 117.51C57.4545 117.202 58.8978 118.865 59.4751 120.035C60.6618 122.315 63.356 130.815 60.5336 144.891H61.3354C75.6079 178.771 84.1073 192.138 85.1016 192.107C86.0959 192.077 114.673 160.907 126.027 148.187C132.442 141.133 156.336 141.749 156.336 141.749C156.826 139.303 158.229 137.113 160.281 135.589L159.992 135.097C159.992 116.863 158.966 100.293 160.57 82.0898V81.8434C159.259 82.3258 157.829 82.4252 156.459 82.1293C155.09 81.8334 153.842 81.1553 152.872 80.1802C149.665 76.2686 154.732 62.501 162.238 68.7534C163.264 61.7618 163.553 55.0166 169.39 50.2734C188.955 34.8734 204.67 63.9794 207.878 75.4062C210.7 86.063 195.048 110.087 190.526 111.781C190.001 111.995 189.452 112.15 188.89 112.243C190.526 119.173 190.975 127.643 194.054 133.803V134.111C195.436 134.608 196.665 135.434 197.624 136.512C198.583 137.589 199.242 138.883 199.539 140.271C199.539 140.271 219.071 140.949 224.909 143.505C234.883 147.909 262.466 188.103 263.396 188.134C264.326 188.165 274.911 174.12 289.055 140.271H289.953C287.355 125.949 290.37 116.955 291.589 114.676C292.198 113.506 293.673 111.873 295.245 112.212C299.382 113.105 295.053 121.606 295.245 122.345C295.245 122.592 296.752 122.961 298.067 123.978L298.965 123.762C299.639 121.668 311.41 113.013 320.294 111.658C321.93 111.411 325.586 110.795 326.388 113.691V114.399C330.173 113.906 333.155 114.399 333.733 116.185C333.818 116.7 333.765 117.228 333.58 117.718C333.395 118.208 333.083 118.645 332.674 118.988L331.776 119.296C332.191 119.448 332.554 119.708 332.825 120.046C333.095 120.384 333.263 120.788 333.31 121.212C333.356 121.636 333.279 122.064 333.088 122.449C332.897 122.834 332.598 123.161 332.225 123.393C330.237 124.717 326.709 125.826 323.566 127.551C317.472 130.939 310.255 138.177 309.389 140.764V141.01H309.838C309.838 141.01 290.594 209.879 272.986 216.994C255.378 224.109 220.322 183.699 220.322 183.699C218.783 225.803 230.874 239.139 236.359 250.319C303.392 227.219 331.167 229.653 356.248 243.913C380.111 257.496 446.342 304.065 446.342 304.065L430.016 326.642L430.241 326.796L447.143 303.727C449.068 301.971 465.81 293.47 475.047 283.275C479.473 278.378 486.144 275.36 492.367 281.243L497.242 284.323L455.547 343.058L450.736 340.101ZM502.855 358.181L500.513 359.998V360.152L502.181 362.524V362.709L499.262 362.093H499.102L498.236 364.865H497.979L496.664 362.277C496.664 362.277 496.664 362.277 496.504 362.277L493.714 363.355C493.714 363.355 493.521 363.355 493.714 363.171L495.029 360.583C495.029 360.583 495.029 360.583 495.029 360.429L492.431 358.982V358.766L495.35 358.089L494.9 355.224H495.125L497.466 357.011L499.519 354.916H499.743V357.811L502.726 358.027L502.919 358.181H502.855Z" fill="#0D4329"/>
<path d="M492.238 281.181L450.543 339.916C448.683 338.653 441.37 333.972 430.305 326.857H429.952V326.703L430.177 326.857L447.079 303.788C449.004 302.032 465.746 293.532 474.983 283.337C479.345 278.316 486.016 275.298 492.238 281.181Z" fill="#0D4329"/>
<path d="M60.8538 144.953H61.6556C75.9281 178.833 84.4275 192.2 85.4218 192.169C86.4161 192.139 114.673 160.907 126.026 148.187C132.441 141.134 156.336 141.75 156.336 141.75C156.825 139.304 158.228 137.113 160.281 135.59C162.686 134.142 182.315 131.586 193.156 133.988C193.388 134.021 193.614 134.083 193.829 134.173C195.211 134.67 196.439 135.496 197.399 136.574C198.358 137.651 199.017 138.945 199.314 140.333C199.314 140.333 218.846 141.011 224.683 143.567C234.658 147.971 262.241 188.165 263.171 188.196C264.101 188.227 274.686 174.182 288.83 140.333H289.728L309.421 140.949H309.87C309.87 140.949 290.626 209.818 273.018 216.933C255.41 224.047 220.322 183.699 220.322 183.699C218.782 225.803 230.874 239.139 236.358 250.32L128.945 280.196L128.143 280.442C120.029 221.275 129.715 188.042 129.715 188.042C129.715 188.042 92.7666 228.667 78.5902 223.924C60.4689 218.011 40.4873 145.507 40.4873 145.507H40.9363L60.8538 144.953Z" fill="#0D4329"/>
<path d="M314.04 286.11C316.748 285.1 319.651 284.662 322.552 284.827C325.452 284.991 328.281 285.755 330.846 287.065L429.792 326.735V326.581L446.117 304.005C446.117 304.005 379.886 257.435 356.024 243.853C330.943 229.592 302.686 226.82 235.653 250.013" stroke="#0D4329" stroke-width="2.6488" stroke-linecap="round" stroke-linejoin="round"/>
<path d="M128.753 280.381C131.891 290.685 136.908 300.373 143.571 308.994C149.811 317.317 158.636 323.527 168.78 326.735C189.788 332.741 234.242 328.521 266.892 325.38C276.136 324.581 285.4 326.689 293.288 331.386L380.014 391.908L400.124 372.134L324.367 294.61C321.186 291.495 317.683 288.698 313.911 286.264C298.548 275.976 266.186 260.854 216.313 269.077" stroke="#0D4329" stroke-width="2.6488" stroke-linecap="round" stroke-linejoin="round"/>
<path d="M197.743 79.9344C198.487 79.9344 199.09 79.3552 199.09 78.6408C199.09 77.9263 198.487 77.3472 197.743 77.3472C196.999 77.3472 196.396 77.9263 196.396 78.6408C196.396 79.3552 196.999 79.9344 197.743 79.9344Z" fill="#0D4329"/>
<path d="M179.749 79.656C180.493 79.656 181.096 79.0769 181.096 78.3625C181.096 77.648 180.493 77.0688 179.749 77.0688C179.005 77.0688 178.402 77.648 178.402 78.3625C178.402 79.0769 179.005 79.656 179.749 79.656Z" fill="#0D4329"/>
<path d="M92.125 34.4424H97.5133" stroke="#0D4329" stroke-width="2.6488" stroke-linecap="round" stroke-linejoin="round"/>
<path d="M92.1266 34.4417V16.9473L80.0029 34.4417H92.1266Z" stroke="#0D4329" stroke-width="2.6488" stroke-linecap="round" stroke-linejoin="round"/>
<path d="M92.125 44.7604V34.4424" stroke="#0D4329" stroke-width="2.6488" stroke-linecap="round" stroke-linejoin="round"/>
<path d="M130.004 34.4424H135.392" stroke="#0D4329" stroke-width="2.6488" stroke-linecap="round" stroke-linejoin="round"/>
<path d="M130.004 34.4426V16.979L117.88 34.4426H130.004Z" stroke="#0D4329" stroke-width="2.6488" stroke-linecap="round" stroke-linejoin="round"/>
<path d="M130.004 44.7604V34.4424" stroke="#0D4329" stroke-width="2.6488" stroke-linecap="round" stroke-linejoin="round"/>
<path d="M107.617 44.7921C111.443 44.7921 114.545 38.5316 114.545 30.8089C114.545 23.0862 111.443 16.8257 107.617 16.8257C103.791 16.8257 100.689 23.0862 100.689 30.8089C100.689 38.5316 103.791 44.7921 107.617 44.7921Z" stroke="#0D4329" stroke-width="2.6488" stroke-linecap="round" stroke-linejoin="round"/>
<path d="M162.366 68.5068C163.393 61.5152 163.681 54.77 169.519 50.0268C189.083 34.6268 204.799 63.7328 208.006 75.1596C210.829 85.8164 195.177 109.84 190.655 111.534C190.13 111.749 189.581 111.904 189.019 111.996C182.412 113.167 174.009 107.53 171.154 101.925" stroke="#0D4329" stroke-width="2.6488" stroke-miterlimit="10" stroke-linecap="round"/>
<path d="M159.992 135.098C159.992 116.864 158.966 100.294 160.57 82.0908" stroke="#0D4329" stroke-width="2.6488" stroke-miterlimit="10"/>
<path d="M188.602 111.627L188.794 112.367C190.43 119.297 190.879 127.767 193.958 133.927" stroke="#0D4329" stroke-width="2.6488" stroke-miterlimit="10"/>
<path d="M164.901 71.8337C164.135 70.6886 163.207 69.6519 162.143 68.7537C154.637 62.5937 149.666 76.2689 152.777 80.1805C153.747 81.1555 154.995 81.8336 156.364 82.1296C157.734 82.4255 159.164 82.326 160.475 81.8437C161.082 81.6661 161.672 81.4394 162.239 81.1661" stroke="#0D4329" stroke-width="2.6488" stroke-miterlimit="10" stroke-linecap="round"/>
<path d="M228.18 61.5772C228.244 56.4867 230.059 51.5594 233.343 47.5632C240.752 39.6168 248.707 42.666 255.442 49.442C257.462 51.5403 259.296 53.7965 260.926 56.1872" stroke="#0D4329" stroke-width="2.6488" stroke-miterlimit="10" stroke-linecap="round"/>
<path d="M255.379 49.442C243.415 54.2468 231.516 60.0064 228.245 61.608C228.209 61.6398 228.186 61.6816 228.177 61.7273C228.169 61.773 228.176 61.8201 228.198 61.8617C228.219 61.9032 228.254 61.9369 228.297 61.9578C228.341 61.9787 228.39 61.9856 228.437 61.9776C239.517 61.4498 250.491 59.64 261.12 56.5876C274.975 52.7376 285.72 47.5632 283.571 43.744C281.422 39.9248 268.529 44.1752 255.379 49.442Z" stroke="#0D4329" stroke-width="2.6488" stroke-miterlimit="10"/>
<path d="M183.085 71.5874C182.551 71.0971 181.914 70.7211 181.218 70.4843C180.521 70.2474 179.78 70.155 179.044 70.2132C178.307 70.2714 177.592 70.4789 176.945 70.8219C176.298 71.165 175.735 71.6358 175.291 72.2034" stroke="#0D4329" stroke-width="2.6488" stroke-miterlimit="10" stroke-linecap="round"/>
<path d="M200.18 71.8335C199.645 71.3409 199.008 70.9623 198.31 70.7227C197.613 70.483 196.87 70.3877 196.131 70.443C195.392 70.4982 194.674 70.7028 194.023 71.0433C193.372 71.3838 192.803 71.8525 192.354 72.4187" stroke="#0D4329" stroke-width="2.6488" stroke-miterlimit="10" stroke-linecap="round"/>
<path d="M182.22 101.156C183.727 98.4453 189.051 97.5829 190.687 100.324" stroke="#0D4329" stroke-width="2.6488" stroke-linecap="round" stroke-linejoin="round"/>
<path d="M160.73 74.2974C159.356 75.4957 157.582 76.1837 155.727 76.2378" stroke="#0D4329" stroke-width="2.6488" stroke-miterlimit="10" stroke-linecap="round"/>
<path d="M192.258 72.5723C190.686 76.3299 192.546 82.2435 193.124 86.1243C193.541 88.8039 194.118 93.9475 189.371 92.2843" stroke="#0D4329" stroke-width="2.6488" stroke-miterlimit="10" stroke-linecap="round"/>
<path d="M165.797 284.107C166.214 297.844 155.982 305.914 143.57 308.747C140.677 309.422 137.724 309.835 134.75 309.979" stroke="#0D4329" stroke-width="2.6488" stroke-miterlimit="10" stroke-linecap="round"/>
<path d="M450.8 340.102L455.418 343.12L497.145 284.384L492.238 281.181L492.078 281.089L450.415 339.824H450.383L450.479 339.886L450.543 339.917L450.8 340.102Z" fill="#0D4329" stroke="white" stroke-width="2.6488" stroke-miterlimit="10"/>
<path d="M130.517 62.1015H134.719C136.601 62.1941 138.444 61.57 139.85 60.3647C141.255 59.1594 142.108 57.4703 142.224 55.6643V8.44787C142.117 6.63895 141.266 4.94497 139.859 3.73801C138.451 2.53105 136.603 1.90978 134.719 2.01067H79.6173C77.7302 1.90959 75.8781 2.52992 74.4658 3.73611C73.0535 4.94229 72.1958 6.63627 72.0801 8.44787V55.6643C72.1958 57.4759 73.0535 59.1698 74.4658 60.376C75.8781 61.5822 77.7302 62.2025 79.6173 62.1015H121.312" stroke="#0D4329" stroke-width="2.6488" stroke-linecap="round" stroke-linejoin="round"/>
<path d="M121.473 58.2812C121.473 58.2812 121.697 59.8212 122.114 61.9772C122.98 66.3816 124.712 73.404 127.15 75.252C129.587 77.1 130.004 68.4452 130.068 62.0696C130.068 58.4968 130.068 55.5708 130.068 55.5708" stroke="#0D4329" stroke-width="2.6488" stroke-linecap="round" stroke-linejoin="round"/>
<path d="M41.0658 145.076C40.2319 142.458 33.272 135.836 27.2744 132.294C24.067 130.507 20.6673 129.214 18.7108 127.951C18.3866 127.732 18.1219 127.442 17.9392 127.104C17.7565 126.766 17.6611 126.391 17.6611 126.011C17.6611 125.63 17.7565 125.255 17.9392 124.917C18.1219 124.58 18.3866 124.289 18.7108 124.07C19.7074 123.61 20.8283 123.46 21.9181 123.639C27.8536 125.072 33.3499 127.837 37.9547 131.709" stroke="#0D4329" stroke-width="2.6488" stroke-linecap="round" stroke-linejoin="round"/>
<path d="M52.0341 129.029C51.3927 126.935 39.8463 118.003 31.0262 116.463C29.3905 116.186 25.7341 115.477 24.8682 118.372" stroke="#0D4329" stroke-width="2.6488" stroke-linecap="round" stroke-linejoin="round"/>
<path d="M41.1287 127.274C36.7478 122.892 30.9896 120.014 24.7393 119.081C20.9867 118.496 17.9718 119.081 17.3624 120.713C17.2639 121.228 17.3035 121.758 17.4775 122.254C17.6514 122.749 17.954 123.194 18.3567 123.547" stroke="#0D4329" stroke-width="2.6488" stroke-linecap="round" stroke-linejoin="round"/>
<path d="M50.6865 134.913C50.484 133.946 50.5493 132.945 50.8757 132.01C51.2021 131.075 51.7783 130.239 52.5467 129.584C53.5566 128.869 54.6298 128.241 55.754 127.706C56.1068 126.966 52.0015 118.466 56.171 117.572C57.7426 117.264 59.0575 118.989 59.7632 120.098C61.0461 122.131 63.8685 138.948 59.5707 149.204" stroke="#0D4329" stroke-width="2.6488" stroke-linecap="round" stroke-linejoin="round"/>
<path d="M309.646 140.825C310.511 138.238 317.728 131 323.822 127.612C327.029 125.887 330.493 124.778 332.482 123.454C332.854 123.222 333.153 122.895 333.344 122.51C333.536 122.126 333.612 121.697 333.566 121.273C333.519 120.849 333.352 120.445 333.081 120.107C332.81 119.769 332.447 119.51 332.033 119.357C331.15 119.052 330.204 118.957 329.274 119.08C323.324 120.389 317.783 123.039 313.109 126.811" stroke="#0D4329" stroke-width="2.6488" stroke-linecap="round" stroke-linejoin="round"/>
<path d="M299.126 123.947C299.8 121.853 311.57 113.198 320.455 111.843C322.09 111.596 325.747 110.98 326.549 113.875" stroke="#0D4329" stroke-width="2.6488" stroke-linecap="round" stroke-linejoin="round"/>
<path d="M310.062 122.284C314.558 118.015 320.379 115.269 326.644 114.461C330.429 113.968 333.412 114.461 333.989 116.247C334.074 116.762 334.022 117.289 333.837 117.78C333.651 118.27 333.34 118.707 332.931 119.05" stroke="#0D4329" stroke-width="2.6488" stroke-linecap="round" stroke-linejoin="round"/>
<path d="M300.28 129.738C300.52 128.693 300.449 127.605 300.074 126.597C299.7 125.589 299.038 124.703 298.164 124.04C296.849 123.024 295.437 122.654 295.341 122.408C294.988 121.668 299.318 113.168 295.341 112.274C293.77 111.936 292.134 113.568 291.685 114.738C288.435 123.673 288.132 133.353 290.819 142.458" stroke="#0D4329" stroke-width="2.6488" stroke-linecap="round" stroke-linejoin="round"/>
<path d="M141.967 16.917H500.545C504.153 16.917 507.726 17.6 511.059 18.9269C514.392 20.2537 517.42 22.1985 519.97 24.65C522.52 27.1014 524.542 30.0115 525.919 33.2138C527.297 36.4161 528.004 39.8477 528 43.3126V404.227C528 411.228 525.104 417.941 519.949 422.891C514.795 427.842 507.803 430.623 500.513 430.623H29.4546C22.1703 430.614 15.1872 427.83 10.0393 422.881C4.89152 417.931 2.00001 411.222 2.00002 404.227V43.3126C1.9958 39.8451 2.70388 36.4109 4.08372 33.2067C5.46356 30.0024 7.48806 27.0909 10.0413 24.6391C12.5945 22.1872 15.6263 20.2431 18.963 18.918C22.2998 17.5929 25.8759 16.913 29.4867 16.917H71.8875" stroke="#0D4329" stroke-width="2.6488" stroke-linecap="round" stroke-linejoin="round"/>
<path d="M448.842 338.808C446.982 337.545 430.849 324.917 430.785 325.009" stroke="white" stroke-width="2.6488" stroke-linecap="square" stroke-linejoin="bevel"/>
<path d="M430.594 324.824L445.091 304.989C447.015 303.233 465.682 293.408 474.919 283.213C479.345 278.316 486.016 275.298 492.238 281.181L450.8 340.101L450.543 339.916" stroke="white" stroke-width="2.6488" stroke-linecap="square" stroke-linejoin="bevel"/>
<path d="M397.43 408.416L401.375 412.235L454.071 362.339L449.902 358.274L449.805 358.15L397.109 408.077H397.077L397.173 408.17L397.205 408.2L397.43 408.416Z" fill="#0D4329" stroke="white" stroke-width="2.6488" stroke-miterlimit="10"/>
<path d="M395.763 406.784C394.191 405.214 380.913 389.844 380.849 389.906" stroke="white" stroke-width="2.6488" stroke-linecap="square" stroke-linejoin="bevel"/>
<path d="M380.688 389.69L398.874 372.904C401.119 371.549 421.325 365.389 432.487 357.073C437.843 353.069 444.995 351.344 449.902 358.274L397.431 408.417L397.206 408.201" stroke="white" stroke-width="2.6488" stroke-linecap="square" stroke-linejoin="bevel"/>
<path d="M220.323 183.699C220.323 183.699 255.603 224.17 273.244 217.056C290.884 209.941 309.518 140.733 309.518 140.733L289.793 140.117C275.521 173.997 264.135 188.319 263.269 188.288C262.403 188.258 234.66 148.064 224.781 143.659C218.944 141.103 199.411 140.425 199.411 140.425C199.114 139.037 198.455 137.743 197.496 136.666C196.537 135.588 195.309 134.762 193.927 134.265C193.712 134.175 193.485 134.113 193.253 134.08C182.412 131.678 162.784 134.08 160.378 135.682C158.326 137.205 156.923 139.396 156.433 141.842C156.433 141.842 132.474 141.226 126.124 148.279C114.674 160.907 86.4495 192.138 85.391 192.169C84.3326 192.2 60.823 145.723 60.823 145.723L41.5791 146.216C41.5791 146.216 60.5343 218.01 78.6557 223.924C92.7679 228.667 129.492 188.134 129.492 188.134C129.492 188.134 119.87 221.275 127.92 280.534L128.722 280.288L236.135 250.227C230.747 238.985 218.655 225.587 220.098 183.607V183.391" stroke="white" stroke-width="2.6488" stroke-linecap="round" stroke-linejoin="round"/>
</svg>
