<svg width="24" height="24" viewBox="0 0 24 24" fill="none" xmlns="http://www.w3.org/2000/svg">
<path d="M8.17188 16.9327C9.68203 16.9327 10.9063 15.7058 10.9063 14.1923C10.9063 12.6788 9.68203 11.4519 8.17188 11.4519M8.17188 16.9327C6.66172 16.9327 5.4375 15.7058 5.4375 14.1923C5.4375 12.6788 6.66172 11.4519 8.17188 11.4519M8.17188 16.9327L8.17185 19.125M8.17188 11.4519L8.17185 4.87503M15.8281 12.5481C17.3382 12.5481 18.5625 11.3212 18.5625 9.80769C18.5625 8.29422 17.3382 7.06731 15.8281 7.06731M15.8281 12.5481C14.3179 12.5481 13.0937 11.3212 13.0937 9.80769C13.0937 8.29422 14.3179 7.06731 15.8281 7.06731M15.8281 12.5481L15.8281 19.125M15.8281 7.06731L15.8281 4.875" stroke="#0C0B0B" stroke-linecap="round" stroke-linejoin="round"/>
</svg>
